<?xml version="1.0" encoding="UTF-8"?>
<svg width="588px" height="59px" viewBox="0 0 588 59" version="1.1" xmlns="http://www.w3.org/2000/svg" xmlns:xlink="http://www.w3.org/1999/xlink">
    <!-- Generator: Sketch 43.2 (39069) - http://www.bohemiancoding.com/sketch -->
    <title>Group 14</title>
    <desc>Created with Sketch.</desc>
    <defs>
        <path d="M25,32 C33.836556,32 41,24.836556 41,16 C41,7.163444 33.836556,0 25,0 C16.163444,0 9,7.163444 9,16 C9,24.836556 16.163444,32 25,32 Z" id="path-1"></path>
        <path d="M203.333333,32 C212.169889,32 219.333333,24.836556 219.333333,16 C219.333333,7.163444 212.169889,0 203.333333,0 C194.496777,0 187.333333,7.163444 187.333333,16 C187.333333,24.836556 194.496777,32 203.333333,32 Z" id="path-2"></path>
        <path d="M381.666667,32 C390.503223,32 397.666667,24.836556 397.666667,16 C397.666667,7.163444 390.503223,-1.42108547e-13 381.666667,-1.42108547e-13 C372.830111,-1.42108547e-13 365.666667,7.163444 365.666667,16 C365.666667,24.836556 372.830111,32 381.666667,32 Z" id="path-3"></path>
        <path d="M560,32 C568.836556,32 576,24.836556 576,16 C576,7.163444 568.836556,-1.38555833e-13 560,-1.38555833e-13 C551.163444,-1.38555833e-13 544,7.163444 544,16 C544,24.836556 551.163444,32 560,32 Z" id="path-4"></path>
    </defs>
    <g id="Page-1" stroke="none" stroke-width="1" fill="none" fill-rule="evenodd">
        <g id="Desktop-HD" transform="translate(-129.000000, -450.000000)">
            <g id="Group-14" transform="translate(129.000000, 450.000000)">
                <path d="M462.175913,-71.0469847 L462.175913,102.955887" id="Path-2-Copy" stroke="#006435" stroke-width="6" transform="translate(463.000000, 15.500000) rotate(-90.000000) translate(-463.000000, -15.500000) "></path>
                <path d="M288.175913,-71.0469847 L288.175913,102.955887" id="Path-2" stroke="#006435" stroke-width="6" transform="translate(289.000000, 15.500000) rotate(-90.000000) translate(-289.000000, -15.500000) "></path>
                <path d="M118.175913,-67.0000234 L118.175913,98.9558868" id="Path-2" stroke="#006435" stroke-width="6" transform="translate(119.000000, 15.500000) rotate(-90.000000) translate(-119.000000, -15.500000) "></path>
                <g id="Oval">
                    <use fill="#006435" fill-rule="evenodd" xlink:href="#path-1"></use>
                    <path stroke="#006435" stroke-width="6" d="M25,29 C17.8202983,29 12,23.1797017 12,16 C12,8.82029825 17.8202983,3 25,3 C32.1797017,3 38,8.82029825 38,16 C38,23.1797017 32.1797017,29 25,29 Z"></path>
                </g>
                <path d="M6.8515625,52.3125 L2.453125,52.3125 L1.671875,55 L0.2109375,55 L3.6875,43.796875 L5.671875,43.796875 L9.171875,55 L7.65625,55 L6.8515625,52.3125 Z M2.7890625,51.140625 L6.515625,51.140625 L4.7109375,45.03125 L4.5859375,45.03125 L2.7890625,51.140625 Z M12.1875,47.015625 L12.1875,47.9296875 C12.4218762,47.6015609 12.7395813,47.3411468 13.140625,47.1484375 C13.5416687,46.9557282 14.0026016,46.859375 14.5234375,46.859375 C15.0390651,46.859375 15.5052063,46.9622386 15.921875,47.1679688 C16.3385437,47.3736989 16.695311,47.6614565 16.9921875,48.03125 C17.289064,48.4010435 17.5169263,48.8398412 17.6757813,49.3476562 C17.8346362,49.8554713 17.9140625,50.4114553 17.9140625,51.015625 C17.9140625,51.6197947 17.8346362,52.1744766 17.6757813,52.6796875 C17.5169263,53.1848984 17.289064,53.6210919 16.9921875,53.9882812 C16.695311,54.3554706 16.3385437,54.6419261 15.921875,54.8476562 C15.5052063,55.0533864 15.0390651,55.15625 14.5234375,55.15625 C14.0026016,55.15625 13.5416687,55.0598968 13.140625,54.8671875 C12.7395813,54.6744782 12.4218762,54.4140641 12.1875,54.0859375 L12.1875,57.4296875 L10.875,57.4296875 L10.875,47.015625 L12.1875,47.015625 Z M16.5546875,50.96875 C16.5546875,50.5520813 16.5052088,50.1640643 16.40625,49.8046875 C16.3072912,49.4453107 16.1614593,49.1341159 15.96875,48.8710938 C15.7760407,48.6080716 15.5377618,48.4010424 15.2539063,48.25 C14.9700507,48.0989576 14.6458352,48.0234375 14.28125,48.0234375 C13.9322899,48.0234375 13.6263034,48.0833327 13.3632813,48.203125 C13.1002591,48.3229173 12.8802092,48.4869781 12.703125,48.6953125 C12.5260408,48.9036469 12.3919275,49.1497382 12.3007813,49.4335938 C12.209635,49.7174493 12.1640625,50.02604 12.1640625,50.359375 L12.1640625,51.65625 C12.1640625,51.989585 12.209635,52.2981757 12.3007813,52.5820312 C12.3919275,52.8658868 12.5260408,53.1119781 12.703125,53.3203125 C12.8802092,53.5286469 13.1002591,53.6927077 13.3632813,53.8125 C13.6263034,53.9322923 13.9322899,53.9921875 14.28125,53.9921875 C14.6458352,53.9921875 14.9700507,53.9166674 15.2539063,53.765625 C15.5377618,53.6145826 15.7760407,53.4075534 15.96875,53.1445312 C16.1614593,52.8815091 16.3072912,52.5703143 16.40625,52.2109375 C16.5052088,51.8515607 16.5546875,51.4635437 16.5546875,51.046875 L16.5546875,50.96875 Z M21.1640625,47.015625 L21.1640625,47.9296875 C21.3984387,47.6015609 21.7161438,47.3411468 22.1171875,47.1484375 C22.5182312,46.9557282 22.9791641,46.859375 23.5,46.859375 C24.0156276,46.859375 24.4817688,46.9622386 24.8984375,47.1679688 C25.3151062,47.3736989 25.6718735,47.6614565 25.96875,48.03125 C26.2656265,48.4010435 26.4934888,48.8398412 26.6523438,49.3476562 C26.8111987,49.8554713 26.890625,50.4114553 26.890625,51.015625 C26.890625,51.6197947 26.8111987,52.1744766 26.6523438,52.6796875 C26.4934888,53.1848984 26.2656265,53.6210919 25.96875,53.9882812 C25.6718735,54.3554706 25.3151062,54.6419261 24.8984375,54.8476562 C24.4817688,55.0533864 24.0156276,55.15625 23.5,55.15625 C22.9791641,55.15625 22.5182312,55.0598968 22.1171875,54.8671875 C21.7161438,54.6744782 21.3984387,54.4140641 21.1640625,54.0859375 L21.1640625,57.4296875 L19.8515625,57.4296875 L19.8515625,47.015625 L21.1640625,47.015625 Z M25.53125,50.96875 C25.53125,50.5520813 25.4817713,50.1640643 25.3828125,49.8046875 C25.2838537,49.4453107 25.1380218,49.1341159 24.9453125,48.8710938 C24.7526032,48.6080716 24.5143243,48.4010424 24.2304688,48.25 C23.9466132,48.0989576 23.6223977,48.0234375 23.2578125,48.0234375 C22.9088524,48.0234375 22.6028659,48.0833327 22.3398438,48.203125 C22.0768216,48.3229173 21.8567717,48.4869781 21.6796875,48.6953125 C21.5026033,48.9036469 21.36849,49.1497382 21.2773438,49.4335938 C21.1861975,49.7174493 21.140625,50.02604 21.140625,50.359375 L21.140625,51.65625 C21.140625,51.989585 21.1861975,52.2981757 21.2773438,52.5820312 C21.36849,52.8658868 21.5026033,53.1119781 21.6796875,53.3203125 C21.8567717,53.5286469 22.0768216,53.6927077 22.3398438,53.8125 C22.6028659,53.9322923 22.9088524,53.9921875 23.2578125,53.9921875 C23.6223977,53.9921875 23.9466132,53.9166674 24.2304688,53.765625 C24.5143243,53.6145826 24.7526032,53.4075534 24.9453125,53.1445312 C25.1380218,52.8815091 25.2838537,52.5703143 25.3828125,52.2109375 C25.4817713,51.8515607 25.53125,51.4635437 25.53125,51.046875 L25.53125,50.96875 Z M29.71875,51.4140625 C29.7447918,51.7890644 29.8203119,52.1354151 29.9453125,52.453125 C30.0703131,52.7708349 30.2408843,53.0455718 30.4570313,53.2773438 C30.6731782,53.5091157 30.9283839,53.6888014 31.2226563,53.8164062 C31.5169286,53.9440111 31.8437482,54.0078125 32.203125,54.0078125 C32.6458355,54.0078125 33.0351546,53.9335945 33.3710938,53.7851562 C33.7070329,53.636718 34.0156236,53.450522 34.296875,53.2265625 L34.96875,54.171875 C34.6093732,54.4583348 34.1940128,54.6940095 33.7226563,54.8789062 C33.2512997,55.063803 32.7239613,55.15625 32.140625,55.15625 C31.5624971,55.15625 31.0390648,55.0533864 30.5703125,54.8476562 C30.1015602,54.6419261 29.7018246,54.3554706 29.3710938,53.9882812 C29.0403629,53.6210919 28.7864592,53.1835963 28.609375,52.6757812 C28.4322908,52.1679662 28.34375,51.6145863 28.34375,51.015625 C28.34375,50.406247 28.4309887,49.8476588 28.6054688,49.3398438 C28.7799488,48.8320287 29.0260401,48.3945331 29.34375,48.0273438 C29.6614599,47.6601544 30.0416645,47.3736989 30.484375,47.1679688 C30.9270855,46.9622386 31.4192681,46.859375 31.9609375,46.859375 C32.4869818,46.859375 32.9609354,46.9622386 33.3828125,47.1679688 C33.8046896,47.3736989 34.164061,47.6601544 34.4609375,48.0273438 C34.757814,48.3945331 34.9856763,48.8320287 35.1445313,49.3398438 C35.3033862,49.8476588 35.3828125,50.4010387 35.3828125,51 L35.3828125,51.4140625 L29.71875,51.4140625 Z M31.9140625,48.0078125 C31.5807275,48.0078125 31.2838555,48.072916 31.0234375,48.203125 C30.7630195,48.333334 30.5403655,48.5078114 30.3554688,48.7265625 C30.170572,48.9453136 30.0247401,49.1966132 29.9179688,49.4804688 C29.8111974,49.7643243 29.7500001,50.0572902 29.734375,50.359375 L33.9609375,50.359375 C33.9505208,50.0520818 33.8971359,49.7565118 33.8007813,49.4726562 C33.7044266,49.1888007 33.5690113,48.9388032 33.3945313,48.7226562 C33.2200512,48.5065093 33.0091158,48.333334 32.7617188,48.203125 C32.5143217,48.072916 32.2317724,48.0078125 31.9140625,48.0078125 Z M41.75,54.203125 C41.5156238,54.4739597 41.1992207,54.7005199 40.8007812,54.8828125 C40.4023418,55.0651051 39.9348985,55.15625 39.3984375,55.15625 C39.0026022,55.15625 38.6354184,55.100261 38.296875,54.9882812 C37.9583316,54.8763015 37.6640637,54.7161469 37.4140625,54.5078125 C37.1640613,54.2994781 36.9687507,54.0468765 36.828125,53.75 C36.6874993,53.4531235 36.6171875,53.1171894 36.6171875,52.7421875 C36.6171875,52.4296859 36.6679682,52.1445325 36.7695312,51.8867188 C36.8710943,51.628905 37.014322,51.4036468 37.1992188,51.2109375 C37.3841155,51.0182282 37.6067695,50.8606777 37.8671875,50.7382812 C38.1276055,50.6158848 38.4192692,50.5312502 38.7421875,50.484375 L41.5625,50.1015625 L41.5625,49.59375 C41.5625,49.2916652 41.5156255,49.0377614 41.421875,48.8320312 C41.3281245,48.6263011 41.2018237,48.4635423 41.0429688,48.34375 C40.8841138,48.2239577 40.6966157,48.1380211 40.4804688,48.0859375 C40.2643218,48.0338539 40.0312512,48.0078125 39.78125,48.0078125 C39.3333311,48.0078125 38.9153665,48.0703119 38.5273438,48.1953125 C38.139321,48.3203131 37.7890641,48.466145 37.4765625,48.6328125 L36.984375,47.59375 C37.4427106,47.333332 37.9231746,47.1458339 38.4257812,47.03125 C38.9283879,46.9166661 39.4244767,46.859375 39.9140625,46.859375 C40.8880257,46.859375 41.6249975,47.0794249 42.125,47.5195312 C42.6250025,47.9596376 42.875,48.6015583 42.875,49.4453125 L42.875,53.125 C42.875,53.3906263 42.9270828,53.6132804 43.03125,53.7929688 C43.1354172,53.9726571 43.3020822,54.1145828 43.53125,54.21875 L42.7890625,55.15625 C42.5390613,55.0937497 42.3242196,54.9830737 42.1445312,54.8242188 C41.9648429,54.6653638 41.838542,54.4739595 41.765625,54.25 L41.75,54.203125 Z M39.4140625,51.4453125 C39.1953114,51.4765627 38.9960946,51.520833 38.8164062,51.578125 C38.6367179,51.635417 38.4843756,51.7122391 38.359375,51.8085938 C38.2343744,51.9049484 38.1367191,52.0234368 38.0664062,52.1640625 C37.9960934,52.3046882 37.9609375,52.4765615 37.9609375,52.6796875 C37.9609375,52.9140637 38.0052079,53.1223949 38.09375,53.3046875 C38.1822921,53.4869801 38.3020826,53.6406244 38.453125,53.765625 C38.6041674,53.8906256 38.7799469,53.9856768 38.9804688,54.0507812 C39.1809906,54.1158857 39.3906239,54.1484375 39.609375,54.1484375 C39.8541679,54.1484375 40.0937488,54.1145837 40.328125,54.046875 C40.5625012,53.9791663 40.7708324,53.8815111 40.953125,53.7539062 C41.1354176,53.6263014 41.2825515,53.4713551 41.3945312,53.2890625 C41.506511,53.1067699 41.5625,52.8984387 41.5625,52.6640625 L41.5625,51.125 L39.4140625,51.4453125 Z M45.203125,43.796875 L46.515625,43.796875 L46.515625,53.2109375 C46.515625,53.3411465 46.5273436,53.4557287 46.5507813,53.5546875 C46.5742189,53.6536463 46.614583,53.7369788 46.671875,53.8046875 C46.729167,53.8723962 46.8085932,53.9231769 46.9101563,53.9570312 C47.0117193,53.9908856 47.1380201,54.0078125 47.2890625,54.0078125 C47.45573,54.0078125 47.6067702,54.0026042 47.7421875,53.9921875 C47.8776048,53.9817708 47.9973953,53.9713542 48.1015625,53.9609375 L48.234375,55.0625 L47.78125,55.109375 C47.651041,55.1197917 47.5078133,55.1302083 47.3515625,55.140625 C47.1953117,55.1510417 47.0468757,55.15625 46.90625,55.15625 C46.6718738,55.15625 46.4505219,55.1289065 46.2421875,55.0742188 C46.0338531,55.019531 45.8528654,54.9296881 45.6992188,54.8046875 C45.5455721,54.6796869 45.4244796,54.5182302 45.3359375,54.3203125 C45.2473954,54.1223948 45.203125,53.8802098 45.203125,53.59375 L45.203125,43.796875 Z" id="Appeal" fill="#0B0C0C"></path>
                <g id="Oval">
                    <use fill="#006435" fill-rule="evenodd" xlink:href="#path-2"></use>
                    <path stroke="#006435" stroke-width="6" d="M203.333333,29 C196.153632,29 190.333333,23.1797017 190.333333,16 C190.333333,8.82029825 196.153632,3 203.333333,3 C210.513035,3 216.333333,8.82029825 216.333333,16 C216.333333,23.1797017 210.513035,29 203.333333,29 Z"></path>
                </g>
                <path d="M162.757812,50.3984375 C162.757812,51.2369834 162.653647,52.0012986 162.445312,52.6914062 C162.236978,53.3815139 161.919273,53.9713517 161.492188,54.4609375 C161.065102,54.9505233 160.529951,55.3294257 159.886719,55.5976562 C159.243486,55.8658868 158.486984,56 157.617188,56 L154.023438,56 L154.023438,44.796875 L157.617188,44.796875 C158.486984,44.796875 159.243486,44.9309882 159.886719,45.1992188 C160.529951,45.4674493 161.065102,45.8463517 161.492188,46.3359375 C161.919273,46.8255233 162.236978,47.4153611 162.445312,48.1054688 C162.653647,48.7955764 162.757812,49.5598916 162.757812,50.3984375 Z M161.28125,50.1796875 C161.28125,49.5963512 161.208334,49.0494817 161.0625,48.5390625 C160.916666,48.0286433 160.694012,47.5846373 160.394531,47.2070312 C160.095051,46.8294252 159.712242,46.5312511 159.246094,46.3125 C158.779946,46.0937489 158.226566,45.984375 157.585938,45.984375 L155.398438,45.984375 L155.398438,54.8125 L157.585938,54.8125 C158.226566,54.8125 158.779946,54.7044282 159.246094,54.4882812 C159.712242,54.2721343 160.095051,53.9752623 160.394531,53.5976562 C160.694012,53.2200502 160.916666,52.7760442 161.0625,52.265625 C161.208334,51.7552058 161.28125,51.2083363 161.28125,50.625 L161.28125,50.1796875 Z M173.8125,54.015625 L173.890625,54.015625 L175.796875,44.796875 L177.203125,44.796875 L174.710938,56 L173.078125,56 L170.695312,46.8515625 L168.320312,56 L166.679688,56 L164.195312,44.796875 L165.585938,44.796875 L167.523438,54.015625 L167.617188,54.015625 L170.054688,44.796875 L171.382812,44.796875 L173.8125,54.015625 Z M179.429688,44.796875 L183.359375,44.796875 C183.885419,44.796875 184.361977,44.8841137 184.789062,45.0585938 C185.216148,45.2330738 185.58203,45.4752589 185.886719,45.7851562 C186.191408,46.0950536 186.42578,46.4661437 186.589844,46.8984375 C186.753907,47.3307313 186.835938,47.8046849 186.835938,48.3203125 C186.835938,48.8411484 186.746095,49.3164041 186.566406,49.7460938 C186.386718,50.1757834 186.135418,50.5442693 185.8125,50.8515625 C185.489582,51.1588557 185.105471,51.3971346 184.660156,51.5664062 C184.214842,51.7356779 183.729169,51.8203125 183.203125,51.8203125 L180.804688,51.8203125 L180.804688,56 L179.429688,56 L179.429688,44.796875 Z M185.375,48.2890625 C185.375,47.9609359 185.322917,47.6562514 185.21875,47.375 C185.114583,47.0937486 184.963543,46.8502614 184.765625,46.6445312 C184.567707,46.4388011 184.326824,46.2773443 184.042969,46.1601562 C183.759113,46.0429682 183.437502,45.984375 183.078125,45.984375 L180.804688,45.984375 L180.804688,50.640625 L183.078125,50.640625 C183.437502,50.640625 183.759113,50.5833339 184.042969,50.46875 C184.326824,50.3541661 184.567707,50.1966156 184.765625,49.9960938 C184.963543,49.7955719 185.114583,49.555991 185.21875,49.2773438 C185.322917,48.9986965 185.375,48.6953141 185.375,48.3671875 L185.375,48.2890625 Z M195.460938,49.1875 L195.25,49.1875 C194.911457,49.1875 194.588543,49.2265621 194.28125,49.3046875 C193.973957,49.3828129 193.703126,49.5234365 193.46875,49.7265625 C193.234374,49.9296885 193.046876,50.2070295 192.90625,50.5585938 C192.765624,50.910158 192.695312,51.3593723 192.695312,51.90625 L192.695312,56 L191.382812,56 L191.382812,48.015625 L192.695312,48.015625 L192.695312,49.28125 C192.794271,49.0468738 192.927082,48.8411467 193.09375,48.6640625 C193.260418,48.4869783 193.449218,48.3398443 193.660156,48.2226562 C193.871095,48.1054682 194.097655,48.0182295 194.339844,47.9609375 C194.582032,47.9036455 194.828124,47.875 195.078125,47.875 L195.460938,47.875 L195.460938,49.1875 Z M197.695312,52.4140625 C197.721354,52.7890644 197.796874,53.1354151 197.921875,53.453125 C198.046876,53.7708349 198.217447,54.0455718 198.433594,54.2773438 C198.649741,54.5091157 198.904946,54.6888014 199.199219,54.8164062 C199.493491,54.9440111 199.820311,55.0078125 200.179688,55.0078125 C200.622398,55.0078125 201.011717,54.9335945 201.347656,54.7851562 C201.683595,54.636718 201.992186,54.450522 202.273438,54.2265625 L202.945312,55.171875 C202.585936,55.4583348 202.170575,55.6940095 201.699219,55.8789062 C201.227862,56.063803 200.700524,56.15625 200.117188,56.15625 C199.53906,56.15625 199.015627,56.0533864 198.546875,55.8476562 C198.078123,55.6419261 197.678387,55.3554706 197.347656,54.9882812 C197.016925,54.6210919 196.763022,54.1835963 196.585938,53.6757812 C196.408853,53.1679662 196.320312,52.6145863 196.320312,52.015625 C196.320312,51.406247 196.407551,50.8476588 196.582031,50.3398438 C196.756511,49.8320287 197.002603,49.3945331 197.320312,49.0273438 C197.638022,48.6601544 198.018227,48.3736989 198.460938,48.1679688 C198.903648,47.9622386 199.395831,47.859375 199.9375,47.859375 C200.463544,47.859375 200.937498,47.9622386 201.359375,48.1679688 C201.781252,48.3736989 202.140624,48.6601544 202.4375,49.0273438 C202.734376,49.3945331 202.962239,49.8320287 203.121094,50.3398438 C203.279949,50.8476588 203.359375,51.4010387 203.359375,52 L203.359375,52.4140625 L197.695312,52.4140625 Z M199.890625,49.0078125 C199.55729,49.0078125 199.260418,49.072916 199,49.203125 C198.739582,49.333334 198.516928,49.5078114 198.332031,49.7265625 C198.147134,49.9453136 198.001303,50.1966132 197.894531,50.4804688 C197.78776,50.7643243 197.726563,51.0572902 197.710938,51.359375 L201.9375,51.359375 C201.927083,51.0520818 201.873698,50.7565118 201.777344,50.4726562 C201.680989,50.1888007 201.545574,49.9388032 201.371094,49.7226562 C201.196614,49.5065093 200.985678,49.333334 200.738281,49.203125 C200.490884,49.072916 200.208335,49.0078125 199.890625,49.0078125 Z M210.53125,53.7890625 C210.53125,54.1640644 210.44922,54.4986964 210.285156,54.7929688 C210.121093,55.0872411 209.903647,55.3359365 209.632812,55.5390625 C209.361978,55.7421885 209.050783,55.8958328 208.699219,56 C208.347654,56.1041672 207.986981,56.15625 207.617188,56.15625 C207.033851,56.15625 206.472659,56.0559906 205.933594,55.8554688 C205.394529,55.6549469 204.916669,55.3671894 204.5,54.9921875 L205.21875,54.0625 C205.343751,54.1718755 205.48828,54.2864577 205.652344,54.40625 C205.816407,54.5260423 205.999999,54.6367182 206.203125,54.7382812 C206.406251,54.8398443 206.624999,54.9231768 206.859375,54.9882812 C207.093751,55.0533857 207.341145,55.0859375 207.601562,55.0859375 C207.815105,55.0859375 208.01953,55.058594 208.214844,55.0039062 C208.410157,54.9492185 208.580728,54.8684901 208.726562,54.7617188 C208.872397,54.6549474 208.988281,54.5273445 209.074219,54.3789062 C209.160157,54.230468 209.203125,54.0625009 209.203125,53.875 C209.203125,53.6666656 209.157553,53.4921882 209.066406,53.3515625 C208.97526,53.2109368 208.851563,53.0911463 208.695312,52.9921875 C208.539062,52.8932287 208.356772,52.807292 208.148438,52.734375 C207.940103,52.661458 207.721355,52.588542 207.492188,52.515625 L206.992188,52.3515625 C206.710936,52.257812 206.440105,52.1510423 206.179688,52.03125 C205.91927,51.9114577 205.688803,51.7643238 205.488281,51.5898438 C205.287759,51.4153637 205.128907,51.2083345 205.011719,50.96875 C204.894531,50.7291655 204.835938,50.44271 204.835938,50.109375 C204.835938,49.8385403 204.893229,49.5690118 205.007812,49.3007812 C205.122396,49.0325507 205.298176,48.7916677 205.535156,48.578125 C205.772137,48.3645823 206.072915,48.1914069 206.4375,48.0585938 C206.802085,47.9257806 207.231768,47.859375 207.726562,47.859375 C208.27344,47.859375 208.779946,47.9505199 209.246094,48.1328125 C209.712242,48.3151051 210.106769,48.5416653 210.429688,48.8125 L209.742188,49.7578125 C209.627604,49.648437 209.492188,49.5442713 209.335938,49.4453125 C209.179687,49.3463537 209.013022,49.259115 208.835938,49.1835938 C208.658853,49.1080725 208.473959,49.0468752 208.28125,49 C208.088541,48.9531248 207.898438,48.9296875 207.710938,48.9296875 C207.424478,48.9296875 207.182293,48.9622393 206.984375,49.0273438 C206.786457,49.0924482 206.627605,49.1770828 206.507812,49.28125 C206.38802,49.3854172 206.300782,49.5026035 206.246094,49.6328125 C206.191406,49.7630215 206.164062,49.8906244 206.164062,50.015625 C206.164062,50.1979176 206.203125,50.3502598 206.28125,50.4726562 C206.359375,50.5950527 206.462239,50.7005204 206.589844,50.7890625 C206.717449,50.8776046 206.86328,50.9531247 207.027344,51.015625 C207.191407,51.0781253 207.361978,51.1406247 207.539062,51.203125 L208.195312,51.421875 C208.507814,51.5260422 208.79427,51.6367182 209.054688,51.7539062 C209.315105,51.8710943 209.54427,52.0052076 209.742188,52.15625 C209.992189,52.3541677 210.186197,52.583332 210.324219,52.84375 C210.46224,53.104168 210.53125,53.419269 210.53125,53.7890625 Z M213.859375,48.015625 L213.859375,48.9296875 C214.093751,48.6015609 214.411456,48.3411468 214.8125,48.1484375 C215.213544,47.9557282 215.674477,47.859375 216.195312,47.859375 C216.71094,47.859375 217.177081,47.9622386 217.59375,48.1679688 C218.010419,48.3736989 218.367186,48.6614565 218.664062,49.03125 C218.960939,49.4010435 219.188801,49.8398412 219.347656,50.3476562 C219.506511,50.8554713 219.585938,51.4114553 219.585938,52.015625 C219.585938,52.6197947 219.506511,53.1744766 219.347656,53.6796875 C219.188801,54.1848984 218.960939,54.6210919 218.664062,54.9882812 C218.367186,55.3554706 218.010419,55.6419261 217.59375,55.8476562 C217.177081,56.0533864 216.71094,56.15625 216.195312,56.15625 C215.674477,56.15625 215.213544,56.0598968 214.8125,55.8671875 C214.411456,55.6744782 214.093751,55.4140641 213.859375,55.0859375 L213.859375,58.4296875 L212.546875,58.4296875 L212.546875,48.015625 L213.859375,48.015625 Z M218.226562,51.96875 C218.226562,51.5520813 218.177084,51.1640643 218.078125,50.8046875 C217.979166,50.4453107 217.833334,50.1341159 217.640625,49.8710938 C217.447916,49.6080716 217.209637,49.4010424 216.925781,49.25 C216.641926,49.0989576 216.31771,49.0234375 215.953125,49.0234375 C215.604165,49.0234375 215.298178,49.0833327 215.035156,49.203125 C214.772134,49.3229173 214.552084,49.4869781 214.375,49.6953125 C214.197916,49.9036469 214.063803,50.1497382 213.972656,50.4335938 C213.88151,50.7174493 213.835938,51.02604 213.835938,51.359375 L213.835938,52.65625 C213.835938,52.989585 213.88151,53.2981757 213.972656,53.5820312 C214.063803,53.8658868 214.197916,54.1119781 214.375,54.3203125 C214.552084,54.5286469 214.772134,54.6927077 215.035156,54.8125 C215.298178,54.9322923 215.604165,54.9921875 215.953125,54.9921875 C216.31771,54.9921875 216.641926,54.9166674 216.925781,54.765625 C217.209637,54.6145826 217.447916,54.4075534 217.640625,54.1445312 C217.833334,53.8815091 217.979166,53.5703143 218.078125,53.2109375 C218.177084,52.8515607 218.226562,52.4635437 218.226562,52.046875 L218.226562,51.96875 Z M224.71875,47.859375 C225.270836,47.859375 225.773435,47.9622386 226.226562,48.1679688 C226.67969,48.3736989 227.066405,48.6601544 227.386719,49.0273438 C227.707033,49.3945331 227.955728,49.8320287 228.132812,50.3398438 C228.309897,50.8476588 228.398438,51.406247 228.398438,52.015625 C228.398438,52.6145863 228.309897,53.1679662 228.132812,53.6757812 C227.955728,54.1835963 227.707033,54.6210919 227.386719,54.9882812 C227.066405,55.3554706 226.67969,55.6419261 226.226562,55.8476562 C225.773435,56.0533864 225.270836,56.15625 224.71875,56.15625 C224.166664,56.15625 223.665367,56.0533864 223.214844,55.8476562 C222.764321,55.6419261 222.377606,55.3554706 222.054688,54.9882812 C221.731769,54.6210919 221.481772,54.1835963 221.304688,53.6757812 C221.127603,53.1679662 221.039062,52.6145863 221.039062,52.015625 C221.039062,51.406247 221.127603,50.8476588 221.304688,50.3398438 C221.481772,49.8320287 221.731769,49.3945331 222.054688,49.0273438 C222.377606,48.6601544 222.764321,48.3736989 223.214844,48.1679688 C223.665367,47.9622386 224.166664,47.859375 224.71875,47.859375 Z M224.71875,55.0078125 C225.09896,55.0078125 225.433592,54.9283862 225.722656,54.7695312 C226.01172,54.6106763 226.253905,54.3958347 226.449219,54.125 C226.644532,53.8541653 226.791666,53.5403664 226.890625,53.1835938 C226.989584,52.8268211 227.039062,52.453127 227.039062,52.0625 L227.039062,51.96875 C227.039062,51.5677063 226.989584,51.1875018 226.890625,50.828125 C226.791666,50.4687482 226.644532,50.1549493 226.449219,49.8867188 C226.253905,49.6184882 226.01172,49.4049487 225.722656,49.2460938 C225.433592,49.0872388 225.09896,49.0078125 224.71875,49.0078125 C224.33854,49.0078125 224.003908,49.0872388 223.714844,49.2460938 C223.42578,49.4049487 223.183595,49.6184882 222.988281,49.8867188 C222.792968,50.1549493 222.645834,50.4687482 222.546875,50.828125 C222.447916,51.1875018 222.398438,51.5677063 222.398438,51.96875 L222.398438,52.0625 C222.398438,52.453127 222.447916,52.8268211 222.546875,53.1835938 C222.645834,53.5403664 222.792968,53.8541653 222.988281,54.125 C223.183595,54.3958347 223.42578,54.6106763 223.714844,54.7695312 C224.003908,54.9283862 224.33854,55.0078125 224.71875,55.0078125 Z M230.320312,48.015625 L231.632812,48.015625 L231.632812,48.9296875 C231.903647,48.559894 232.238279,48.2890634 232.636719,48.1171875 C233.035158,47.9453116 233.479164,47.859375 233.96875,47.859375 C234.411461,47.859375 234.799477,47.9322909 235.132812,48.078125 C235.466148,48.2239591 235.744791,48.4218738 235.96875,48.671875 C236.192709,48.9218762 236.360677,49.2109359 236.472656,49.5390625 C236.584636,49.8671891 236.640625,50.2135398 236.640625,50.578125 L236.640625,56 L235.328125,56 L235.328125,50.9921875 C235.328125,50.6432274 235.285157,50.3450533 235.199219,50.0976562 C235.113281,49.8502592 234.996094,49.6497404 234.847656,49.4960938 C234.699218,49.3424471 234.524741,49.2304691 234.324219,49.1601562 C234.123697,49.0898434 233.908855,49.0546875 233.679688,49.0546875 C233.429686,49.0546875 233.183595,49.10026 232.941406,49.1914062 C232.699218,49.2825525 232.48047,49.4192699 232.285156,49.6015625 C232.089843,49.7838551 231.932292,50.0130195 231.8125,50.2890625 C231.692708,50.5651055 231.632812,50.8906231 231.632812,51.265625 L231.632812,56 L230.320312,56 L230.320312,48.015625 Z M244.320312,53.7890625 C244.320312,54.1640644 244.238282,54.4986964 244.074219,54.7929688 C243.910155,55.0872411 243.69271,55.3359365 243.421875,55.5390625 C243.15104,55.7421885 242.839846,55.8958328 242.488281,56 C242.136717,56.1041672 241.776044,56.15625 241.40625,56.15625 C240.822914,56.15625 240.261721,56.0559906 239.722656,55.8554688 C239.183591,55.6549469 238.705731,55.3671894 238.289062,54.9921875 L239.007812,54.0625 C239.132813,54.1718755 239.277343,54.2864577 239.441406,54.40625 C239.60547,54.5260423 239.789061,54.6367182 239.992188,54.7382812 C240.195314,54.8398443 240.414061,54.9231768 240.648438,54.9882812 C240.882814,55.0533857 241.130207,55.0859375 241.390625,55.0859375 C241.604168,55.0859375 241.808593,55.058594 242.003906,55.0039062 C242.19922,54.9492185 242.369791,54.8684901 242.515625,54.7617188 C242.661459,54.6549474 242.777343,54.5273445 242.863281,54.3789062 C242.949219,54.230468 242.992188,54.0625009 242.992188,53.875 C242.992188,53.6666656 242.946615,53.4921882 242.855469,53.3515625 C242.764322,53.2109368 242.640626,53.0911463 242.484375,52.9921875 C242.328124,52.8932287 242.145834,52.807292 241.9375,52.734375 C241.729166,52.661458 241.510418,52.588542 241.28125,52.515625 L240.78125,52.3515625 C240.499999,52.257812 240.229168,52.1510423 239.96875,52.03125 C239.708332,51.9114577 239.477866,51.7643238 239.277344,51.5898438 C239.076822,51.4153637 238.917969,51.2083345 238.800781,50.96875 C238.683593,50.7291655 238.625,50.44271 238.625,50.109375 C238.625,49.8385403 238.682291,49.5690118 238.796875,49.3007812 C238.911459,49.0325507 239.087238,48.7916677 239.324219,48.578125 C239.561199,48.3645823 239.861977,48.1914069 240.226562,48.0585938 C240.591148,47.9257806 241.020831,47.859375 241.515625,47.859375 C242.062503,47.859375 242.569008,47.9505199 243.035156,48.1328125 C243.501304,48.3151051 243.895832,48.5416653 244.21875,48.8125 L243.53125,49.7578125 C243.416666,49.648437 243.281251,49.5442713 243.125,49.4453125 C242.968749,49.3463537 242.802084,49.259115 242.625,49.1835938 C242.447916,49.1080725 242.263022,49.0468752 242.070312,49 C241.877603,48.9531248 241.687501,48.9296875 241.5,48.9296875 C241.21354,48.9296875 240.971355,48.9622393 240.773438,49.0273438 C240.57552,49.0924482 240.416667,49.1770828 240.296875,49.28125 C240.177083,49.3854172 240.089844,49.5026035 240.035156,49.6328125 C239.980468,49.7630215 239.953125,49.8906244 239.953125,50.015625 C239.953125,50.1979176 239.992187,50.3502598 240.070312,50.4726562 C240.148438,50.5950527 240.251301,50.7005204 240.378906,50.7890625 C240.506511,50.8776046 240.652343,50.9531247 240.816406,51.015625 C240.98047,51.0781253 241.151041,51.1406247 241.328125,51.203125 L241.984375,51.421875 C242.296877,51.5260422 242.583332,51.6367182 242.84375,51.7539062 C243.104168,51.8710943 243.333332,52.0052076 243.53125,52.15625 C243.781251,52.3541677 243.97526,52.583332 244.113281,52.84375 C244.251303,53.104168 244.320312,53.419269 244.320312,53.7890625 Z M247.226562,52.4140625 C247.252604,52.7890644 247.328124,53.1354151 247.453125,53.453125 C247.578126,53.7708349 247.748697,54.0455718 247.964844,54.2773438 C248.180991,54.5091157 248.436196,54.6888014 248.730469,54.8164062 C249.024741,54.9440111 249.351561,55.0078125 249.710938,55.0078125 C250.153648,55.0078125 250.542967,54.9335945 250.878906,54.7851562 C251.214845,54.636718 251.523436,54.450522 251.804688,54.2265625 L252.476562,55.171875 C252.117186,55.4583348 251.701825,55.6940095 251.230469,55.8789062 C250.759112,56.063803 250.231774,56.15625 249.648438,56.15625 C249.07031,56.15625 248.546877,56.0533864 248.078125,55.8476562 C247.609373,55.6419261 247.209637,55.3554706 246.878906,54.9882812 C246.548175,54.6210919 246.294272,54.1835963 246.117188,53.6757812 C245.940103,53.1679662 245.851562,52.6145863 245.851562,52.015625 C245.851562,51.406247 245.938801,50.8476588 246.113281,50.3398438 C246.287761,49.8320287 246.533853,49.3945331 246.851562,49.0273438 C247.169272,48.6601544 247.549477,48.3736989 247.992188,48.1679688 C248.434898,47.9622386 248.927081,47.859375 249.46875,47.859375 C249.994794,47.859375 250.468748,47.9622386 250.890625,48.1679688 C251.312502,48.3736989 251.671874,48.6601544 251.96875,49.0273438 C252.265626,49.3945331 252.493489,49.8320287 252.652344,50.3398438 C252.811199,50.8476588 252.890625,51.4010387 252.890625,52 L252.890625,52.4140625 L247.226562,52.4140625 Z M249.421875,49.0078125 C249.08854,49.0078125 248.791668,49.072916 248.53125,49.203125 C248.270832,49.333334 248.048178,49.5078114 247.863281,49.7265625 C247.678384,49.9453136 247.532553,50.1966132 247.425781,50.4804688 C247.31901,50.7643243 247.257813,51.0572902 247.242188,51.359375 L251.46875,51.359375 C251.458333,51.0520818 251.404948,50.7565118 251.308594,50.4726562 C251.212239,50.1888007 251.076824,49.9388032 250.902344,49.7226562 C250.727864,49.5065093 250.516928,49.333334 250.269531,49.203125 C250.022134,49.072916 249.739585,49.0078125 249.421875,49.0078125 Z" id="DWP-response" fill="#231F1F"></path>
                <g id="Oval" transform="translate(381.666667, 16.000000) rotate(-90.000000) translate(-381.666667, -16.000000) ">
                    <use fill="#006435" fill-rule="evenodd" xlink:href="#path-3"></use>
                    <path stroke="#006435" stroke-width="6" d="M381.666667,29 C374.486965,29 368.666667,23.1797017 368.666667,16 C368.666667,8.82029825 374.486965,3 381.666667,3 C388.846368,3 394.666667,8.82029825 394.666667,16 C394.666667,23.1797017 388.846368,29 381.666667,29 Z"></path>
                </g>
                <path d="M335.898438,49.8515625 L330,49.8515625 L330,55 L328.625,55 L328.625,43.796875 L330,43.796875 L330,48.6640625 L335.898438,48.6640625 L335.898438,43.796875 L337.28125,43.796875 L337.28125,55 L335.898438,55 L335.898438,49.8515625 Z M340.726562,51.4140625 C340.752604,51.7890644 340.828124,52.1354151 340.953125,52.453125 C341.078126,52.7708349 341.248697,53.0455718 341.464844,53.2773438 C341.680991,53.5091157 341.936196,53.6888014 342.230469,53.8164062 C342.524741,53.9440111 342.851561,54.0078125 343.210938,54.0078125 C343.653648,54.0078125 344.042967,53.9335945 344.378906,53.7851562 C344.714845,53.636718 345.023436,53.450522 345.304688,53.2265625 L345.976562,54.171875 C345.617186,54.4583348 345.201825,54.6940095 344.730469,54.8789062 C344.259112,55.063803 343.731774,55.15625 343.148438,55.15625 C342.57031,55.15625 342.046877,55.0533864 341.578125,54.8476562 C341.109373,54.6419261 340.709637,54.3554706 340.378906,53.9882812 C340.048175,53.6210919 339.794272,53.1835963 339.617188,52.6757812 C339.440103,52.1679662 339.351562,51.6145863 339.351562,51.015625 C339.351562,50.406247 339.438801,49.8476588 339.613281,49.3398438 C339.787761,48.8320287 340.033853,48.3945331 340.351562,48.0273438 C340.669272,47.6601544 341.049477,47.3736989 341.492188,47.1679688 C341.934898,46.9622386 342.427081,46.859375 342.96875,46.859375 C343.494794,46.859375 343.968748,46.9622386 344.390625,47.1679688 C344.812502,47.3736989 345.171874,47.6601544 345.46875,48.0273438 C345.765626,48.3945331 345.993489,48.8320287 346.152344,49.3398438 C346.311199,49.8476588 346.390625,50.4010387 346.390625,51 L346.390625,51.4140625 L340.726562,51.4140625 Z M342.921875,48.0078125 C342.58854,48.0078125 342.291668,48.072916 342.03125,48.203125 C341.770832,48.333334 341.548178,48.5078114 341.363281,48.7265625 C341.178384,48.9453136 341.032553,49.1966132 340.925781,49.4804688 C340.81901,49.7643243 340.757813,50.0572902 340.742188,50.359375 L344.96875,50.359375 C344.958333,50.0520818 344.904948,49.7565118 344.808594,49.4726562 C344.712239,49.1888007 344.576824,48.9388032 344.402344,48.7226562 C344.227864,48.5065093 344.016928,48.333334 343.769531,48.203125 C343.522134,48.072916 343.239585,48.0078125 342.921875,48.0078125 Z M352.757812,54.203125 C352.523436,54.4739597 352.207033,54.7005199 351.808594,54.8828125 C351.410154,55.0651051 350.942711,55.15625 350.40625,55.15625 C350.010415,55.15625 349.643231,55.100261 349.304688,54.9882812 C348.966144,54.8763015 348.671876,54.7161469 348.421875,54.5078125 C348.171874,54.2994781 347.976563,54.0468765 347.835938,53.75 C347.695312,53.4531235 347.625,53.1171894 347.625,52.7421875 C347.625,52.4296859 347.675781,52.1445325 347.777344,51.8867188 C347.878907,51.628905 348.022134,51.4036468 348.207031,51.2109375 C348.391928,51.0182282 348.614582,50.8606777 348.875,50.7382812 C349.135418,50.6158848 349.427082,50.5312502 349.75,50.484375 L352.570312,50.1015625 L352.570312,49.59375 C352.570312,49.2916652 352.523438,49.0377614 352.429688,48.8320312 C352.335937,48.6263011 352.209636,48.4635423 352.050781,48.34375 C351.891926,48.2239577 351.704428,48.1380211 351.488281,48.0859375 C351.272134,48.0338539 351.039064,48.0078125 350.789062,48.0078125 C350.341144,48.0078125 349.923179,48.0703119 349.535156,48.1953125 C349.147133,48.3203131 348.796877,48.466145 348.484375,48.6328125 L347.992188,47.59375 C348.450523,47.333332 348.930987,47.1458339 349.433594,47.03125 C349.9362,46.9166661 350.432289,46.859375 350.921875,46.859375 C351.895838,46.859375 352.63281,47.0794249 353.132812,47.5195312 C353.632815,47.9596376 353.882812,48.6015583 353.882812,49.4453125 L353.882812,53.125 C353.882812,53.3906263 353.934895,53.6132804 354.039062,53.7929688 C354.14323,53.9726571 354.309895,54.1145828 354.539062,54.21875 L353.796875,55.15625 C353.546874,55.0937497 353.332032,54.9830737 353.152344,54.8242188 C352.972655,54.6653638 352.846355,54.4739595 352.773438,54.25 L352.757812,54.203125 Z M350.421875,51.4453125 C350.203124,51.4765627 350.003907,51.520833 349.824219,51.578125 C349.64453,51.635417 349.492188,51.7122391 349.367188,51.8085938 C349.242187,51.9049484 349.144532,52.0234368 349.074219,52.1640625 C349.003906,52.3046882 348.96875,52.4765615 348.96875,52.6796875 C348.96875,52.9140637 349.01302,53.1223949 349.101562,53.3046875 C349.190105,53.4869801 349.309895,53.6406244 349.460938,53.765625 C349.61198,53.8906256 349.787759,53.9856768 349.988281,54.0507812 C350.188803,54.1158857 350.398436,54.1484375 350.617188,54.1484375 C350.86198,54.1484375 351.101561,54.1145837 351.335938,54.046875 C351.570314,53.9791663 351.778645,53.8815111 351.960938,53.7539062 C352.14323,53.6263014 352.290364,53.4713551 352.402344,53.2890625 C352.514323,53.1067699 352.570312,52.8984387 352.570312,52.6640625 L352.570312,51.125 L350.421875,51.4453125 Z M360.34375,48.1875 L360.132812,48.1875 C359.794269,48.1875 359.471356,48.2265621 359.164062,48.3046875 C358.856769,48.3828129 358.585939,48.5234365 358.351562,48.7265625 C358.117186,48.9296885 357.929688,49.2070295 357.789062,49.5585938 C357.648437,49.910158 357.578125,50.3593723 357.578125,50.90625 L357.578125,55 L356.265625,55 L356.265625,47.015625 L357.578125,47.015625 L357.578125,48.28125 C357.677084,48.0468738 357.809895,47.8411467 357.976562,47.6640625 C358.14323,47.4869783 358.33203,47.3398443 358.542969,47.2226562 C358.753907,47.1054682 358.980468,47.0182295 359.222656,46.9609375 C359.464845,46.9036455 359.710936,46.875 359.960938,46.875 L360.34375,46.875 L360.34375,48.1875 Z M363.195312,55 L361.882812,55 L361.882812,47.015625 L363.195312,47.015625 L363.195312,55 Z M361.640625,44.7109375 C361.640625,44.5859369 361.665364,44.4687505 361.714844,44.359375 C361.764323,44.2499995 361.829427,44.1536463 361.910156,44.0703125 C361.990886,43.9869787 362.087239,43.9205732 362.199219,43.8710938 C362.311198,43.8216143 362.429687,43.796875 362.554688,43.796875 C362.679688,43.796875 362.796874,43.8216143 362.90625,43.8710938 C363.015626,43.9205732 363.110677,43.9869787 363.191406,44.0703125 C363.272136,44.1536463 363.337239,44.2499995 363.386719,44.359375 C363.436198,44.4687505 363.460938,44.5859369 363.460938,44.7109375 C363.460938,44.8359381 363.436198,44.9544265 363.386719,45.0664062 C363.337239,45.178386 363.272136,45.2747392 363.191406,45.3554688 C363.110677,45.4361983 363.015626,45.5013018 362.90625,45.5507812 C362.796874,45.6002607 362.679688,45.625 362.554688,45.625 C362.429687,45.625 362.311198,45.6002607 362.199219,45.5507812 C362.087239,45.5013018 361.990886,45.4361983 361.910156,45.3554688 C361.829427,45.2747392 361.764323,45.178386 361.714844,45.0664062 C361.665364,44.9544265 361.640625,44.8359381 361.640625,44.7109375 Z M365.59375,47.015625 L366.90625,47.015625 L366.90625,47.9296875 C367.177085,47.559894 367.511717,47.2890634 367.910156,47.1171875 C368.308596,46.9453116 368.752602,46.859375 369.242188,46.859375 C369.684898,46.859375 370.072915,46.9322909 370.40625,47.078125 C370.739585,47.2239591 371.018228,47.4218737 371.242188,47.671875 C371.466147,47.9218763 371.634114,48.2109359 371.746094,48.5390625 C371.858073,48.8671891 371.914062,49.2135398 371.914062,49.578125 L371.914062,55 L370.601562,55 L370.601562,49.9921875 C370.601562,49.6432274 370.558594,49.3450533 370.472656,49.0976562 C370.386718,48.8502592 370.269532,48.6497404 370.121094,48.4960938 C369.972656,48.3424471 369.798178,48.2304691 369.597656,48.1601562 C369.397134,48.0898434 369.182293,48.0546875 368.953125,48.0546875 C368.703124,48.0546875 368.457032,48.10026 368.214844,48.1914062 C367.972655,48.2825525 367.753907,48.4192699 367.558594,48.6015625 C367.36328,48.7838551 367.20573,49.0130195 367.085938,49.2890625 C366.966145,49.5651055 366.90625,49.8906231 366.90625,50.265625 L366.90625,55 L365.59375,55 L365.59375,47.015625 Z M373.796875,50.5703125 C373.796875,50.0442682 373.872395,49.5546898 374.023438,49.1015625 C374.17448,48.6484352 374.390624,48.2565121 374.671875,47.9257812 C374.953126,47.5950504 375.292967,47.3346364 375.691406,47.1445312 C376.089846,46.9544261 376.536456,46.859375 377.03125,46.859375 C377.468752,46.859375 377.885415,46.9440096 378.28125,47.1132812 C378.677085,47.2825529 379.013019,47.5546856 379.289062,47.9296875 L379.289062,47.015625 L380.601562,47.015625 L380.601562,55 C380.601562,55.4947941 380.501303,55.9101546 380.300781,56.2460938 C380.100259,56.5820329 379.838543,56.8515615 379.515625,57.0546875 C379.192707,57.2578135 378.826825,57.4036454 378.417969,57.4921875 C378.009113,57.5807296 377.593752,57.625 377.171875,57.625 C376.937499,57.625 376.694012,57.6119793 376.441406,57.5859375 C376.188801,57.5598957 375.934897,57.5208336 375.679688,57.46875 C375.424478,57.4166664 375.173178,57.3502608 374.925781,57.2695312 C374.678384,57.1888017 374.442709,57.0937505 374.21875,56.984375 L374.695312,55.8828125 C374.851563,55.9557295 375.015624,56.0273434 375.1875,56.0976562 C375.359376,56.1679691 375.545572,56.2317705 375.746094,56.2890625 C375.946616,56.3463545 376.161457,56.393229 376.390625,56.4296875 C376.619793,56.466146 376.86979,56.484375 377.140625,56.484375 C377.47396,56.484375 377.774738,56.4505212 378.042969,56.3828125 C378.311199,56.3151038 378.536457,56.2096361 378.71875,56.0664062 C378.901043,55.9231764 379.041666,55.7408865 379.140625,55.5195312 C379.239584,55.298176 379.289062,55.0338557 379.289062,54.7265625 L379.289062,53.2109375 C379.013019,53.5859394 378.677085,53.8580721 378.28125,54.0273438 C377.885415,54.1966154 377.468752,54.28125 377.03125,54.28125 C376.536456,54.28125 376.089846,54.1861989 375.691406,53.9960938 C375.292967,53.8059886 374.953126,53.5442725 374.671875,53.2109375 C374.390624,52.8776025 374.17448,52.4856793 374.023438,52.0351562 C373.872395,51.5846332 373.796875,51.0963568 373.796875,50.5703125 Z M379.320312,50.5390625 C379.320312,50.1796857 379.28125,49.8476578 379.203125,49.5429688 C379.125,49.2382797 379.002605,48.9726574 378.835938,48.7460938 C378.66927,48.5195301 378.457033,48.3424486 378.199219,48.2148438 C377.941405,48.0872389 377.632814,48.0234375 377.273438,48.0234375 C376.908852,48.0234375 376.593751,48.088541 376.328125,48.21875 C376.062499,48.348959 375.842449,48.5273426 375.667969,48.7539062 C375.493489,48.9804699 375.364584,49.2473943 375.28125,49.5546875 C375.197916,49.8619807 375.15625,50.1901024 375.15625,50.5390625 L375.15625,50.6015625 C375.15625,50.9505226 375.197916,51.2773422 375.28125,51.5820312 C375.364584,51.8867203 375.493489,52.1523426 375.667969,52.3789062 C375.842449,52.6054699 376.062499,52.7838535 376.328125,52.9140625 C376.593751,53.0442715 376.908852,53.109375 377.273438,53.109375 C377.632814,53.109375 377.941405,53.0455736 378.199219,52.9179688 C378.457033,52.7903639 378.66927,52.6145845 378.835938,52.390625 C379.002605,52.1666655 379.125,51.9010432 379.203125,51.59375 C379.28125,51.2864568 379.320312,50.9557309 379.320312,50.6015625 L379.320312,50.5390625 Z M387.515625,55 L386.203125,55 L386.203125,43.796875 L387.515625,43.796875 L387.515625,47.9296875 C387.750001,47.6015609 388.067706,47.3411468 388.46875,47.1484375 C388.869794,46.9557282 389.330727,46.859375 389.851562,46.859375 C390.36719,46.859375 390.833331,46.9622386 391.25,47.1679688 C391.666669,47.3736989 392.023436,47.6614565 392.320312,48.03125 C392.617189,48.4010435 392.845051,48.8398412 393.003906,49.3476562 C393.162761,49.8554713 393.242188,50.4114553 393.242188,51.015625 C393.242188,51.6197947 393.162761,52.1744766 393.003906,52.6796875 C392.845051,53.1848984 392.617189,53.6210919 392.320312,53.9882812 C392.023436,54.3554706 391.666669,54.6419261 391.25,54.8476562 C390.833331,55.0533864 390.36719,55.15625 389.851562,55.15625 C389.330727,55.15625 388.869794,55.0598968 388.46875,54.8671875 C388.067706,54.6744782 387.750001,54.4140641 387.515625,54.0859375 L387.515625,55 Z M391.882812,50.96875 C391.882812,50.5520813 391.833334,50.1640643 391.734375,49.8046875 C391.635416,49.4453107 391.489584,49.1341159 391.296875,48.8710938 C391.104166,48.6080716 390.865887,48.4010424 390.582031,48.25 C390.298176,48.0989576 389.97396,48.0234375 389.609375,48.0234375 C389.260415,48.0234375 388.954428,48.0833327 388.691406,48.203125 C388.428384,48.3229173 388.208334,48.4869781 388.03125,48.6953125 C387.854166,48.9036469 387.720053,49.1497382 387.628906,49.4335938 C387.53776,49.7174493 387.492188,50.02604 387.492188,50.359375 L387.492188,51.65625 C387.492188,51.989585 387.53776,52.2981757 387.628906,52.5820312 C387.720053,52.8658868 387.854166,53.1119781 388.03125,53.3203125 C388.208334,53.5286469 388.428384,53.6927077 388.691406,53.8125 C388.954428,53.9322923 389.260415,53.9921875 389.609375,53.9921875 C389.97396,53.9921875 390.298176,53.9166674 390.582031,53.765625 C390.865887,53.6145826 391.104166,53.4075534 391.296875,53.1445312 C391.489584,52.8815091 391.635416,52.5703143 391.734375,52.2109375 C391.833334,51.8515607 391.882812,51.4635437 391.882812,51.046875 L391.882812,50.96875 Z M398.375,46.859375 C398.927086,46.859375 399.429685,46.9622386 399.882812,47.1679688 C400.33594,47.3736989 400.722655,47.6601544 401.042969,48.0273438 C401.363283,48.3945331 401.611978,48.8320287 401.789062,49.3398438 C401.966147,49.8476588 402.054688,50.406247 402.054688,51.015625 C402.054688,51.6145863 401.966147,52.1679662 401.789062,52.6757812 C401.611978,53.1835963 401.363283,53.6210919 401.042969,53.9882812 C400.722655,54.3554706 400.33594,54.6419261 399.882812,54.8476562 C399.429685,55.0533864 398.927086,55.15625 398.375,55.15625 C397.822914,55.15625 397.321617,55.0533864 396.871094,54.8476562 C396.420571,54.6419261 396.033856,54.3554706 395.710938,53.9882812 C395.388019,53.6210919 395.138022,53.1835963 394.960938,52.6757812 C394.783853,52.1679662 394.695312,51.6145863 394.695312,51.015625 C394.695312,50.406247 394.783853,49.8476588 394.960938,49.3398438 C395.138022,48.8320287 395.388019,48.3945331 395.710938,48.0273438 C396.033856,47.6601544 396.420571,47.3736989 396.871094,47.1679688 C397.321617,46.9622386 397.822914,46.859375 398.375,46.859375 Z M398.375,54.0078125 C398.75521,54.0078125 399.089842,53.9283862 399.378906,53.7695312 C399.66797,53.6106763 399.910155,53.3958347 400.105469,53.125 C400.300782,52.8541653 400.447916,52.5403664 400.546875,52.1835938 C400.645834,51.8268211 400.695312,51.453127 400.695312,51.0625 L400.695312,50.96875 C400.695312,50.5677063 400.645834,50.1875018 400.546875,49.828125 C400.447916,49.4687482 400.300782,49.1549493 400.105469,48.8867188 C399.910155,48.6184882 399.66797,48.4049487 399.378906,48.2460938 C399.089842,48.0872388 398.75521,48.0078125 398.375,48.0078125 C397.99479,48.0078125 397.660158,48.0872388 397.371094,48.2460938 C397.08203,48.4049487 396.839845,48.6184882 396.644531,48.8867188 C396.449218,49.1549493 396.302084,49.4687482 396.203125,49.828125 C396.104166,50.1875018 396.054688,50.5677063 396.054688,50.96875 L396.054688,51.0625 C396.054688,51.453127 396.104166,51.8268211 396.203125,52.1835938 C396.302084,52.5403664 396.449218,52.8541653 396.644531,53.125 C396.839845,53.3958347 397.08203,53.6106763 397.371094,53.7695312 C397.660158,53.9283862 397.99479,54.0078125 398.375,54.0078125 Z M407.171875,46.859375 C407.723961,46.859375 408.22656,46.9622386 408.679688,47.1679688 C409.132815,47.3736989 409.51953,47.6601544 409.839844,48.0273438 C410.160158,48.3945331 410.408853,48.8320287 410.585938,49.3398438 C410.763022,49.8476588 410.851562,50.406247 410.851562,51.015625 C410.851562,51.6145863 410.763022,52.1679662 410.585938,52.6757812 C410.408853,53.1835963 410.160158,53.6210919 409.839844,53.9882812 C409.51953,54.3554706 409.132815,54.6419261 408.679688,54.8476562 C408.22656,55.0533864 407.723961,55.15625 407.171875,55.15625 C406.619789,55.15625 406.118492,55.0533864 405.667969,54.8476562 C405.217446,54.6419261 404.830731,54.3554706 404.507812,53.9882812 C404.184894,53.6210919 403.934897,53.1835963 403.757812,52.6757812 C403.580728,52.1679662 403.492188,51.6145863 403.492188,51.015625 C403.492188,50.406247 403.580728,49.8476588 403.757812,49.3398438 C403.934897,48.8320287 404.184894,48.3945331 404.507812,48.0273438 C404.830731,47.6601544 405.217446,47.3736989 405.667969,47.1679688 C406.118492,46.9622386 406.619789,46.859375 407.171875,46.859375 Z M407.171875,54.0078125 C407.552085,54.0078125 407.886717,53.9283862 408.175781,53.7695312 C408.464845,53.6106763 408.70703,53.3958347 408.902344,53.125 C409.097657,52.8541653 409.244791,52.5403664 409.34375,52.1835938 C409.442709,51.8268211 409.492188,51.453127 409.492188,51.0625 L409.492188,50.96875 C409.492188,50.5677063 409.442709,50.1875018 409.34375,49.828125 C409.244791,49.4687482 409.097657,49.1549493 408.902344,48.8867188 C408.70703,48.6184882 408.464845,48.4049487 408.175781,48.2460938 C407.886717,48.0872388 407.552085,48.0078125 407.171875,48.0078125 C406.791665,48.0078125 406.457033,48.0872388 406.167969,48.2460938 C405.878905,48.4049487 405.63672,48.6184882 405.441406,48.8867188 C405.246093,49.1549493 405.098959,49.4687482 405,49.828125 C404.901041,50.1875018 404.851562,50.5677063 404.851562,50.96875 L404.851562,51.0625 C404.851562,51.453127 404.901041,51.8268211 405,52.1835938 C405.098959,52.5403664 405.246093,52.8541653 405.441406,53.125 C405.63672,53.3958347 405.878905,53.6106763 406.167969,53.7695312 C406.457033,53.9283862 406.791665,54.0078125 407.171875,54.0078125 Z M414.085938,50.9375 L417.84375,47.015625 L419.492188,47.015625 L416.453125,50.1875 L419.632812,55 L418.03125,55 L415.523438,51.0625 L414.085938,52.5390625 L414.085938,55 L412.773438,55 L412.773438,43.796875 L414.085938,43.796875 L414.085938,50.9375 Z M421.648438,51.4140625 C421.674479,51.7890644 421.749999,52.1354151 421.875,52.453125 C422.000001,52.7708349 422.170572,53.0455718 422.386719,53.2773438 C422.602866,53.5091157 422.858071,53.6888014 423.152344,53.8164062 C423.446616,53.9440111 423.773436,54.0078125 424.132812,54.0078125 C424.575523,54.0078125 424.964842,53.9335945 425.300781,53.7851562 C425.63672,53.636718 425.945311,53.450522 426.226562,53.2265625 L426.898438,54.171875 C426.539061,54.4583348 426.1237,54.6940095 425.652344,54.8789062 C425.180987,55.063803 424.653649,55.15625 424.070312,55.15625 C423.492185,55.15625 422.968752,55.0533864 422.5,54.8476562 C422.031248,54.6419261 421.631512,54.3554706 421.300781,53.9882812 C420.97005,53.6210919 420.716147,53.1835963 420.539062,52.6757812 C420.361978,52.1679662 420.273438,51.6145863 420.273438,51.015625 C420.273438,50.406247 420.360676,49.8476588 420.535156,49.3398438 C420.709636,48.8320287 420.955728,48.3945331 421.273438,48.0273438 C421.591147,47.6601544 421.971352,47.3736989 422.414062,47.1679688 C422.856773,46.9622386 423.348956,46.859375 423.890625,46.859375 C424.416669,46.859375 424.890623,46.9622386 425.3125,47.1679688 C425.734377,47.3736989 426.093749,47.6601544 426.390625,48.0273438 C426.687501,48.3945331 426.915364,48.8320287 427.074219,49.3398438 C427.233074,49.8476588 427.3125,50.4010387 427.3125,51 L427.3125,51.4140625 L421.648438,51.4140625 Z M423.84375,48.0078125 C423.510415,48.0078125 423.213543,48.072916 422.953125,48.203125 C422.692707,48.333334 422.470053,48.5078114 422.285156,48.7265625 C422.100259,48.9453136 421.954428,49.1966132 421.847656,49.4804688 C421.740885,49.7643243 421.679688,50.0572902 421.664062,50.359375 L425.890625,50.359375 C425.880208,50.0520818 425.826823,49.7565118 425.730469,49.4726562 C425.634114,49.1888007 425.498699,48.9388032 425.324219,48.7226562 C425.149739,48.5065093 424.938803,48.333334 424.691406,48.203125 C424.444009,48.072916 424.16146,48.0078125 423.84375,48.0078125 Z M434.398438,54.0859375 C434.164061,54.4140641 433.845054,54.6744782 433.441406,54.8671875 C433.037758,55.0598968 432.578128,55.15625 432.0625,55.15625 C431.546872,55.15625 431.080731,55.0533864 430.664062,54.8476562 C430.247394,54.6419261 429.890626,54.3554706 429.59375,53.9882812 C429.296874,53.6210919 429.069011,53.1848984 428.910156,52.6796875 C428.751301,52.1744766 428.671875,51.6197947 428.671875,51.015625 C428.671875,50.4114553 428.751301,49.8554713 428.910156,49.3476562 C429.069011,48.8398412 429.296874,48.4010435 429.59375,48.03125 C429.890626,47.6614565 430.247394,47.3736989 430.664062,47.1679688 C431.080731,46.9622386 431.546872,46.859375 432.0625,46.859375 C432.578128,46.859375 433.037758,46.9557282 433.441406,47.1484375 C433.845054,47.3411468 434.164061,47.6015609 434.398438,47.9296875 L434.398438,43.796875 L435.710938,43.796875 L435.710938,55 L434.398438,55 L434.398438,54.0859375 Z M430.03125,51.046875 C430.03125,51.4635437 430.080729,51.8515607 430.179688,52.2109375 C430.278646,52.5703143 430.424478,52.8815091 430.617188,53.1445312 C430.809897,53.4075534 431.046874,53.6145826 431.328125,53.765625 C431.609376,53.9166674 431.934894,53.9921875 432.304688,53.9921875 C432.653648,53.9921875 432.959634,53.9322923 433.222656,53.8125 C433.485678,53.6927077 433.705728,53.5286469 433.882812,53.3203125 C434.059897,53.1119781 434.192708,52.8658868 434.28125,52.5820312 C434.369792,52.2981757 434.414062,51.989585 434.414062,51.65625 L434.414062,50.359375 C434.414062,50.02604 434.369792,49.7174493 434.28125,49.4335938 C434.192708,49.1497382 434.059897,48.9036469 433.882812,48.6953125 C433.705728,48.4869781 433.485678,48.3229173 433.222656,48.203125 C432.959634,48.0833327 432.653648,48.0234375 432.304688,48.0234375 C431.934894,48.0234375 431.609376,48.0989576 431.328125,48.25 C431.046874,48.4010424 430.809897,48.6080716 430.617188,48.8710938 C430.424478,49.1341159 430.278646,49.4453107 430.179688,49.8046875 C430.080729,50.1640643 430.03125,50.5520813 430.03125,50.96875 L430.03125,51.046875 Z" id="Hearing-booked" fill="#231F1F"></path>
                <g id="Oval" transform="translate(560.000000, 16.000000) rotate(-90.000000) translate(-560.000000, -16.000000) ">
                    <use fill="#006435" fill-rule="evenodd" xlink:href="#path-4"></use>
                    <path stroke="#006435" stroke-width="6" d="M560,29 C552.820298,29 547,23.1797017 547,16 C547,8.82029825 552.820298,3 560,3 C567.179702,3 573,8.82029825 573,16 C573,23.1797017 567.179702,29 560,29 Z"></path>
                </g>
                <path d="M539.851562,50.28125 L534.921875,50.28125 L534.921875,55 L532.65625,55 L532.65625,43.796875 L534.921875,43.796875 L534.921875,48.234375 L539.851562,48.234375 L539.851562,43.796875 L542.125,43.796875 L542.125,55 L539.851562,55 L539.851562,50.28125 Z M546.023438,51.5625 C546.059896,51.8125013 546.139322,52.0416656 546.261719,52.25 C546.384115,52.4583344 546.539062,52.636718 546.726562,52.7851562 C546.914063,52.9335945 547.130207,53.0494787 547.375,53.1328125 C547.619793,53.2161463 547.880207,53.2578125 548.15625,53.2578125 C548.47396,53.2578125 548.817706,53.1966152 549.1875,53.0742188 C549.557294,52.9518223 549.895832,52.7734387 550.203125,52.5390625 L551.242188,54.0546875 C550.851561,54.3828141 550.372399,54.6484365 549.804688,54.8515625 C549.236976,55.0546885 548.632816,55.15625 547.992188,55.15625 C547.41406,55.15625 546.869794,55.0572927 546.359375,54.859375 C545.848956,54.6614573 545.402346,54.3750019 545.019531,54 C544.636717,53.6249981 544.334637,53.1692735 544.113281,52.6328125 C543.891926,52.0963515 543.78125,51.4921909 543.78125,50.8203125 C543.78125,50.2057261 543.878905,49.6328152 544.074219,49.1015625 C544.269532,48.5703098 544.542967,48.109377 544.894531,47.71875 C545.246096,47.328123 545.666664,47.0221365 546.15625,46.8007812 C546.645836,46.579426 547.187497,46.46875 547.78125,46.46875 C548.333336,46.46875 548.846352,46.5690094 549.320312,46.7695312 C549.794273,46.9700531 550.205727,47.2513003 550.554688,47.6132812 C550.903648,47.9752622 551.177082,48.4088516 551.375,48.9140625 C551.572918,49.4192734 551.671875,49.9765595 551.671875,50.5859375 L551.671875,51.5625 L546.023438,51.5625 Z M547.773438,48.34375 C547.309894,48.34375 546.91797,48.4986964 546.597656,48.8085938 C546.277342,49.1184911 546.091146,49.4921853 546.039062,49.9296875 L549.414062,49.9296875 C549.403646,49.486977 549.242189,49.1119807 548.929688,48.8046875 C548.617186,48.4973943 548.231773,48.34375 547.773438,48.34375 Z M555.75,51.6015625 C555.484374,51.6432294 555.270834,51.7356764 555.109375,51.8789062 C554.947916,52.0221361 554.867188,52.2161446 554.867188,52.4609375 C554.867188,52.7317722 554.966145,52.9648428 555.164062,53.1601562 C555.36198,53.3554697 555.653644,53.453125 556.039062,53.453125 C556.445315,53.453125 556.765624,53.3359387 557,53.1015625 C557.234376,52.8671863 557.351562,52.5572936 557.351562,52.171875 L557.351562,51.328125 L555.75,51.6015625 Z M557.703125,54.2109375 C557.614583,54.3098963 557.506511,54.415364 557.378906,54.5273438 C557.251301,54.6393235 557.100261,54.740885 556.925781,54.8320312 C556.751301,54.9231775 556.546876,54.9999997 556.3125,55.0625 C556.078124,55.1250003 555.815106,55.15625 555.523438,55.15625 C555.106769,55.15625 554.722658,55.0898444 554.371094,54.9570312 C554.019529,54.8242181 553.710939,54.638022 553.445312,54.3984375 C553.179686,54.158853 552.971355,53.881512 552.820312,53.5664062 C552.66927,53.2513005 552.59375,52.908856 552.59375,52.5390625 C552.59375,51.8671841 552.802081,51.3177105 553.21875,50.890625 C553.635419,50.4635395 554.210934,50.195313 554.945312,50.0859375 L557.351562,49.734375 L557.351562,49.578125 C557.351562,49.2031231 557.23698,48.9062511 557.007812,48.6875 C556.778645,48.4687489 556.406253,48.359375 555.890625,48.359375 C555.677082,48.359375 555.460939,48.3841143 555.242188,48.4335938 C555.023436,48.4830732 554.813803,48.5390622 554.613281,48.6015625 C554.412759,48.6640628 554.226563,48.7356767 554.054688,48.8164062 C553.882812,48.8971358 553.731771,48.9687497 553.601562,49.03125 L552.757812,47.3828125 C553.236982,47.1171862 553.769528,46.8984384 554.355469,46.7265625 C554.941409,46.5546866 555.549476,46.46875 556.179688,46.46875 C556.565106,46.46875 556.954425,46.5091142 557.347656,46.5898438 C557.740887,46.6705733 558.097655,46.8177073 558.417969,47.03125 C558.738283,47.2447927 558.999999,47.5351544 559.203125,47.9023438 C559.406251,48.2695331 559.507812,48.7369763 559.507812,49.3046875 L559.507812,52.7421875 C559.507812,52.9869804 559.571614,53.1679682 559.699219,53.2851562 C559.826824,53.4023443 560.002603,53.5104162 560.226562,53.609375 L559.25,55.15625 C558.854165,55.1145831 558.53646,55.0117196 558.296875,54.8476562 C558.05729,54.6835929 557.859376,54.4713555 557.703125,54.2109375 Z M566.007812,48.7265625 L565.78125,48.7265625 C565.473957,48.7265625 565.180991,48.7578122 564.902344,48.8203125 C564.623697,48.8828128 564.377605,48.9960929 564.164062,49.1601562 C563.95052,49.3242196 563.779949,49.5494777 563.652344,49.8359375 C563.524739,50.1223973 563.460938,50.4895811 563.460938,50.9375 L563.460938,55 L561.304688,55 L561.304688,46.6328125 L563.460938,46.6328125 L563.460938,47.578125 C563.54948,47.4374993 563.664062,47.302084 563.804688,47.171875 C563.945313,47.041666 564.109374,46.9257818 564.296875,46.8242188 C564.484376,46.7226557 564.695311,46.6406253 564.929688,46.578125 C565.164064,46.5156247 565.416665,46.484375 565.6875,46.484375 L566.007812,46.484375 L566.007812,48.7265625 Z M569.507812,55 L567.351562,55 L567.351562,46.6328125 L569.507812,46.6328125 L569.507812,55 Z M567.125,44.4375 C567.125,44.2604158 567.158854,44.0924487 567.226562,43.9335938 C567.294271,43.7747388 567.386718,43.6367193 567.503906,43.5195312 C567.621094,43.4023432 567.757812,43.3098962 567.914062,43.2421875 C568.070313,43.1744788 568.239582,43.140625 568.421875,43.140625 C568.598959,43.140625 568.766926,43.1744788 568.925781,43.2421875 C569.084636,43.3098962 569.222656,43.4023432 569.339844,43.5195312 C569.457032,43.6367193 569.549479,43.7747388 569.617188,43.9335938 C569.684896,44.0924487 569.71875,44.2604158 569.71875,44.4375 C569.71875,44.6197926 569.684896,44.7890617 569.617188,44.9453125 C569.549479,45.1015633 569.457032,45.2382807 569.339844,45.3554688 C569.222656,45.4726568 569.084636,45.5651038 568.925781,45.6328125 C568.766926,45.7005212 568.598959,45.734375 568.421875,45.734375 C568.239582,45.734375 568.070313,45.7005212 567.914062,45.6328125 C567.757812,45.5651038 567.621094,45.4726568 567.503906,45.3554688 C567.386718,45.2382807 567.294271,45.1015633 567.226562,44.9453125 C567.158854,44.7890617 567.125,44.6197926 567.125,44.4375 Z M571.367188,46.6328125 L573.523438,46.6328125 L573.523438,47.3515625 C573.638021,47.2369786 573.766926,47.1263026 573.910156,47.0195312 C574.053386,46.9127599 574.210937,46.8190108 574.382812,46.7382812 C574.554688,46.6575517 574.746093,46.5924482 574.957031,46.5429688 C575.16797,46.4934893 575.40104,46.46875 575.65625,46.46875 C576.109377,46.46875 576.515623,46.542968 576.875,46.6914062 C577.234377,46.8398445 577.537759,47.0442695 577.785156,47.3046875 C578.032553,47.5651055 578.221354,47.8697899 578.351562,48.21875 C578.481771,48.5677101 578.546875,48.9453105 578.546875,49.3515625 L578.546875,55 L576.390625,55 L576.390625,50.1328125 C576.390625,49.835936 576.356771,49.5846364 576.289062,49.3789062 C576.221354,49.1731761 576.128907,49.0065111 576.011719,48.8789062 C575.894531,48.7513014 575.756511,48.6575524 575.597656,48.5976562 C575.438801,48.5377601 575.265626,48.5078125 575.078125,48.5078125 C574.859374,48.5078125 574.654949,48.5468746 574.464844,48.625 C574.274739,48.7031254 574.109376,48.8216138 573.96875,48.9804688 C573.828124,49.1393237 573.71875,49.3385405 573.640625,49.578125 C573.5625,49.8177095 573.523438,50.0989567 573.523438,50.421875 L573.523438,55 L571.367188,55 L571.367188,46.6328125 Z M585.429688,53.515625 C585.236978,53.7500012 584.96745,53.9361972 584.621094,54.0742188 C584.274738,54.2122403 583.89844,54.28125 583.492188,54.28125 C582.929685,54.28125 582.42969,54.1822927 581.992188,53.984375 C581.554685,53.7864573 581.186199,53.5143246 580.886719,53.1679688 C580.587238,52.8216129 580.358074,52.4114607 580.199219,51.9375 C580.040364,51.4635393 579.960938,50.9427112 579.960938,50.375 C579.960938,49.8229139 580.040364,49.305992 580.199219,48.8242188 C580.358074,48.3424455 580.587238,47.9283871 580.886719,47.5820312 C581.186199,47.2356754 581.554685,46.9635427 581.992188,46.765625 C582.42969,46.5677073 582.929685,46.46875 583.492188,46.46875 C583.89844,46.46875 584.274738,46.5390618 584.621094,46.6796875 C584.96745,46.8203132 585.236978,47.0078113 585.429688,47.2421875 L585.429688,46.6328125 L587.59375,46.6328125 L587.59375,54.921875 C587.59375,55.4322942 587.497397,55.8710919 587.304688,56.2382812 C587.111978,56.6054706 586.847658,56.9062488 586.511719,57.140625 C586.17578,57.3750012 585.786461,57.5455724 585.34375,57.6523438 C584.901039,57.7591151 584.42969,57.8125 583.929688,57.8125 C583.320309,57.8125 582.684899,57.7408861 582.023438,57.5976562 C581.361976,57.4544264 580.791669,57.2760427 580.3125,57.0625 L580.921875,55.3203125 C581.067709,55.3828128 581.247395,55.4518225 581.460938,55.5273438 C581.67448,55.602865 581.903645,55.6692705 582.148438,55.7265625 C582.39323,55.7838545 582.649738,55.8320311 582.917969,55.8710938 C583.186199,55.9101564 583.447915,55.9296875 583.703125,55.9296875 C583.927084,55.9296875 584.143228,55.9075523 584.351562,55.8632812 C584.559897,55.8190102 584.743489,55.7460943 584.902344,55.6445312 C585.061199,55.5429682 585.188802,55.4101571 585.285156,55.2460938 C585.381511,55.0820304 585.429688,54.8723971 585.429688,54.6171875 L585.429688,53.515625 Z M582.179688,50.40625 C582.179688,50.682293 582.209635,50.941405 582.269531,51.1835938 C582.329427,51.4257825 582.425781,51.6315096 582.558594,51.8007812 C582.691407,51.9700529 582.861978,52.1028641 583.070312,52.1992188 C583.278647,52.2955734 583.531249,52.34375 583.828125,52.34375 C584.41667,52.34375 584.835936,52.1575539 585.085938,51.7851562 C585.335939,51.4127586 585.460938,50.9531277 585.460938,50.40625 L585.460938,50.34375 C585.460938,50.067707 585.432292,49.809897 585.375,49.5703125 C585.317708,49.330728 585.223959,49.1250009 585.09375,48.953125 C584.963541,48.7812491 584.795574,48.6471359 584.589844,48.5507812 C584.384114,48.4544266 584.13021,48.40625 583.828125,48.40625 C583.244789,48.40625 582.82422,48.591144 582.566406,48.9609375 C582.308592,49.330731 582.179688,49.7916639 582.179688,50.34375 L582.179688,50.40625 Z" id="Hearing" fill="#231F1F"></path>
                <polygon id="Shape" fill="#FFFFFF" points="21.94 18.36 18.52 14.94 16 17.46 21.94 23.5799999 33.9999999 11.52 31.4799999 9"></polygon>
                <polygon id="Shape" fill="#FFFFFF" points="199.94 18.36 196.52 14.94 194 17.46 199.94 23.5799999 212 11.52 209.48 9"></polygon>
                <polygon id="Shape" fill="#FFFFFF" points="378.94 18.36 375.52 14.94 373 17.46 378.94 23.5799999 391 11.52 388.48 9"></polygon>
                <polygon id="Shape" fill="#FFFFFF" points="556.94 18.36 553.52 14.94 551 17.46 556.94 23.5799999 569 11.52 566.48 9"></polygon>
            </g>
        </g>
    </g>
</svg>