<?xml version="1.0" encoding="UTF-8"?>
<svg width="586px" height="59px" viewBox="0 0 586 59" version="1.1" xmlns="http://www.w3.org/2000/svg" xmlns:xlink="http://www.w3.org/1999/xlink">
    <!-- Generator: Sketch 43.2 (39069) - http://www.bohemiancoding.com/sketch -->
    <title>Group 4</title>
    <desc>Created with Sketch.</desc>
    <defs>
        <path d="M27,32 C35.836556,32 43,24.836556 43,16 C43,7.163444 35.836556,0 27,0 C18.163444,0 11,7.163444 11,16 C11,24.836556 18.163444,32 27,32 Z" id="path-1"></path>
        <path d="M205.333333,32 C214.169889,32 221.333333,24.836556 221.333333,16 C221.333333,7.163444 214.169889,0 205.333333,0 C196.496777,0 189.333333,7.163444 189.333333,16 C189.333333,24.836556 196.496777,32 205.333333,32 Z" id="path-2"></path>
        <path d="M58.6666667,32 C67.5032227,32 74.6666667,24.836556 74.6666667,16 C74.6666667,7.163444 67.5032227,-2.84217094e-14 58.6666667,-2.84217094e-14 C49.8301107,-2.84217094e-14 42.6666667,7.163444 42.6666667,16 C42.6666667,24.836556 49.8301107,32 58.6666667,32 Z" id="path-3"></path>
        <path d="M28,32 C36.836556,32 44,24.836556 44,16 C44,7.163444 36.836556,-2.48689958e-14 28,-2.48689958e-14 C19.163444,-2.48689958e-14 12,7.163444 12,16 C12,24.836556 19.163444,32 28,32 Z" id="path-4"></path>
    </defs>
    <g id="Page-1" stroke="none" stroke-width="1" fill="none" fill-rule="evenodd">
        <g id="Desktop-HD" transform="translate(-211.000000, -264.000000)">
            <g id="Group-4" transform="translate(209.000000, 264.000000)">
                <g id="Group-12">
                    <g id="Group-10-Copy">
                        <g id="Group-8" transform="translate(154.000000, 0.000000)"></g>
                        <g id="Group-11">
                            <path d="M464.175913,-71.0469847 L464.175913,102.955887" id="Path-2-Copy" stroke="#006435" stroke-width="6" transform="translate(465.000000, 15.500000) rotate(-90.000000) translate(-465.000000, -15.500000) "></path>
                            <path d="M290.175913,-71.0469847 L290.175913,102.955887" id="Path-2" stroke="#006435" stroke-width="6" transform="translate(291.000000, 15.500000) rotate(-90.000000) translate(-291.000000, -15.500000) "></path>
                            <path d="M120.175913,-67.0000234 L120.175913,98.9558868" id="Path-2" stroke="#006435" stroke-width="6" transform="translate(121.000000, 15.500000) rotate(-90.000000) translate(-121.000000, -15.500000) "></path>
                            <g id="Group-9">
                                <g id="Oval">
                                    <use fill="#006435" fill-rule="evenodd" xlink:href="#path-1"></use>
                                    <path stroke="#006435" stroke-width="6" d="M27,29 C19.8202983,29 14,23.1797017 14,16 C14,8.82029825 19.8202983,3 27,3 C34.1797017,3 40,8.82029825 40,16 C40,23.1797017 34.1797017,29 27,29 Z"></path>
                                </g>
                                <text id="Appeal" font-family="GDSTransportWebsite, GDS Transport Website" font-size="16" font-weight="300" line-spacing="22" fill="#0B0C0C">
                                    <tspan x="1.71875" y="54">Appeal</tspan>
                                </text>
                            </g>
                            <g id="Oval">
                                <use fill="#006435" fill-rule="evenodd" xlink:href="#path-2"></use>
                                <path stroke="#006435" stroke-width="6" d="M205.333333,29 C198.153632,29 192.333333,23.1797017 192.333333,16 C192.333333,8.82029825 198.153632,3 205.333333,3 C212.513035,3 218.333333,8.82029825 218.333333,16 C218.333333,23.1797017 212.513035,29 205.333333,29 Z"></path>
                            </g>
                            <text id="DWP-response" font-family="GDSTransportWebsite-Bold, GDS Transport Website" font-size="16" font-weight="bold" fill="#231F1F">
                                <tspan x="152.539062" y="56">DWP response</tspan>
                            </text>
                            <g id="Group-5" transform="translate(325.000000, 0.000000)">
                                <g id="Oval" transform="translate(58.666667, 16.000000) rotate(-90.000000) translate(-58.666667, -16.000000) ">
                                    <use fill="#FFFFFF" fill-rule="evenodd" xlink:href="#path-3"></use>
                                    <path stroke="#006435" stroke-width="6" d="M58.6666667,29 C51.4869649,29 45.6666667,23.1797017 45.6666667,16 C45.6666667,8.82029825 51.4869649,3 58.6666667,3 C65.8463684,3 71.6666667,8.82029825 71.6666667,16 C71.6666667,23.1797017 65.8463684,29 58.6666667,29 Z"></path>
                                </g>
                                <text id="Hearing-booked" font-family="GDSTransportWebsite, GDS Transport Website" font-size="16" font-weight="300" fill="#231F1F">
                                    <tspan x="4.0859375" y="55">Hearing booked</tspan>
                                </text>
                            </g>
                            <g id="Group-2" transform="translate(534.000000, 0.000000)">
                                <g id="Oval" transform="translate(28.000000, 16.000000) rotate(-90.000000) translate(-28.000000, -16.000000) ">
                                    <use fill="#FFFFFF" fill-rule="evenodd" xlink:href="#path-4"></use>
                                    <path stroke="#006435" stroke-width="6" d="M28,29 C20.8202983,29 15,23.1797017 15,16 C15,8.82029825 20.8202983,3 28,3 C35.1797017,3 41,8.82029825 41,16 C41,23.1797017 35.1797017,29 28,29 Z"></path>
                                </g>
                                <text id="Hearing" font-family="GDSTransportWebsite, GDS Transport Website" font-size="16" font-weight="300" fill="#231F1F">
                                    <tspan x="0.64453125" y="55">Hearing</tspan>
                                </text>
                            </g>
                        </g>
                    </g>
                    <polygon id="Shape" fill="#FFFFFF" points="23.94 18.36 20.52 14.94 18 17.46 23.94 23.5799999 35.9999999 11.52 33.4799999 9"></polygon>
                    <polygon id="Shape" fill="#FFFFFF" points="201.94 18.36 198.52 14.94 196 17.46 201.94 23.5799999 214 11.52 211.48 9"></polygon>
                </g>
            </g>
        </g>
    </g>
</svg>