<?xml version="1.0" encoding="UTF-8"?>
<svg width="587px" height="59px" viewBox="0 0 587 59" version="1.1" xmlns="http://www.w3.org/2000/svg" xmlns:xlink="http://www.w3.org/1999/xlink">
    <!-- Generator: Sketch 43.2 (39069) - http://www.bohemiancoding.com/sketch -->
    <title>Group 10</title>
    <desc>Created with Sketch.</desc>
    <defs>
        <path d="M25,32 C33.836556,32 41,24.836556 41,16 C41,7.163444 33.836556,0 25,0 C16.163444,0 9,7.163444 9,16 C9,24.836556 16.163444,32 25,32 Z" id="path-1"></path>
        <path d="M203.333333,32 C212.169889,32 219.333333,24.836556 219.333333,16 C219.333333,7.163444 212.169889,0 203.333333,0 C194.496777,0 187.333333,7.163444 187.333333,16 C187.333333,24.836556 194.496777,32 203.333333,32 Z" id="path-2"></path>
        <path d="M53.6666667,32 C62.5032227,32 69.6666667,24.836556 69.6666667,16 C69.6666667,7.163444 62.5032227,-2.84217094e-14 53.6666667,-2.84217094e-14 C44.8301107,-2.84217094e-14 37.6666667,7.163444 37.6666667,16 C37.6666667,24.836556 44.8301107,32 53.6666667,32 Z" id="path-3"></path>
        <path d="M26,32 C34.836556,32 42,24.836556 42,16 C42,7.163444 34.836556,-2.48689958e-14 26,-2.48689958e-14 C17.163444,-2.48689958e-14 10,7.163444 10,16 C10,24.836556 17.163444,32 26,32 Z" id="path-4"></path>
    </defs>
    <g id="Page-1" stroke="none" stroke-width="1" fill="none" fill-rule="evenodd">
        <g id="Desktop-HD" transform="translate(-129.000000, -214.000000)">
            <g id="Group-10" transform="translate(129.000000, 214.000000)">
                <path d="M462.175913,-71.0469847 L462.175913,102.955887" id="Path-2-Copy" stroke="#006435" stroke-width="6" transform="translate(463.000000, 15.500000) rotate(-90.000000) translate(-463.000000, -15.500000) "></path>
                <path d="M288.175913,-71.0469847 L288.175913,102.955887" id="Path-2" stroke="#006435" stroke-width="6" transform="translate(289.000000, 15.500000) rotate(-90.000000) translate(-289.000000, -15.500000) "></path>
                <path d="M118.175913,-67.0000234 L118.175913,98.9558868" id="Path-2" stroke="#006435" stroke-width="6" transform="translate(119.000000, 15.500000) rotate(-90.000000) translate(-119.000000, -15.500000) "></path>
                <g id="Group-9">
                    <g id="Oval">
                        <use fill="#006435" fill-rule="evenodd" xlink:href="#path-1"></use>
                        <path stroke="#006435" stroke-width="6" d="M25,29 C17.8202983,29 12,23.1797017 12,16 C12,8.82029825 17.8202983,3 25,3 C32.1797017,3 38,8.82029825 38,16 C38,23.1797017 32.1797017,29 25,29 Z"></path>
                    </g>
                    <path d="M6.8515625,52.3125 L2.453125,52.3125 L1.671875,55 L0.2109375,55 L3.6875,43.796875 L5.671875,43.796875 L9.171875,55 L7.65625,55 L6.8515625,52.3125 Z M2.7890625,51.140625 L6.515625,51.140625 L4.7109375,45.03125 L4.5859375,45.03125 L2.7890625,51.140625 Z M12.1875,47.015625 L12.1875,47.9296875 C12.4218762,47.6015609 12.7395813,47.3411468 13.140625,47.1484375 C13.5416687,46.9557282 14.0026016,46.859375 14.5234375,46.859375 C15.0390651,46.859375 15.5052063,46.9622386 15.921875,47.1679688 C16.3385438,47.3736989 16.695311,47.6614565 16.9921875,48.03125 C17.289064,48.4010435 17.5169263,48.8398412 17.6757813,49.3476562 C17.8346362,49.8554713 17.9140625,50.4114553 17.9140625,51.015625 C17.9140625,51.6197947 17.8346362,52.1744766 17.6757813,52.6796875 C17.5169263,53.1848984 17.289064,53.6210919 16.9921875,53.9882812 C16.695311,54.3554706 16.3385438,54.6419261 15.921875,54.8476562 C15.5052063,55.0533864 15.0390651,55.15625 14.5234375,55.15625 C14.0026016,55.15625 13.5416687,55.0598968 13.140625,54.8671875 C12.7395813,54.6744782 12.4218762,54.4140641 12.1875,54.0859375 L12.1875,57.4296875 L10.875,57.4296875 L10.875,47.015625 L12.1875,47.015625 Z M16.5546875,50.96875 C16.5546875,50.5520813 16.5052088,50.1640643 16.40625,49.8046875 C16.3072912,49.4453107 16.1614593,49.1341159 15.96875,48.8710938 C15.7760407,48.6080716 15.5377618,48.4010424 15.2539063,48.25 C14.9700507,48.0989576 14.6458352,48.0234375 14.28125,48.0234375 C13.9322899,48.0234375 13.6263034,48.0833327 13.3632813,48.203125 C13.1002591,48.3229173 12.8802092,48.4869781 12.703125,48.6953125 C12.5260408,48.9036469 12.3919275,49.1497382 12.3007813,49.4335938 C12.209635,49.7174493 12.1640625,50.02604 12.1640625,50.359375 L12.1640625,51.65625 C12.1640625,51.989585 12.209635,52.2981757 12.3007813,52.5820312 C12.3919275,52.8658868 12.5260408,53.1119781 12.703125,53.3203125 C12.8802092,53.5286469 13.1002591,53.6927077 13.3632813,53.8125 C13.6263034,53.9322923 13.9322899,53.9921875 14.28125,53.9921875 C14.6458352,53.9921875 14.9700507,53.9166674 15.2539063,53.765625 C15.5377618,53.6145826 15.7760407,53.4075534 15.96875,53.1445312 C16.1614593,52.8815091 16.3072912,52.5703143 16.40625,52.2109375 C16.5052088,51.8515607 16.5546875,51.4635437 16.5546875,51.046875 L16.5546875,50.96875 Z M21.1640625,47.015625 L21.1640625,47.9296875 C21.3984387,47.6015609 21.7161438,47.3411468 22.1171875,47.1484375 C22.5182312,46.9557282 22.9791641,46.859375 23.5,46.859375 C24.0156276,46.859375 24.4817688,46.9622386 24.8984375,47.1679688 C25.3151062,47.3736989 25.6718735,47.6614565 25.96875,48.03125 C26.2656265,48.4010435 26.4934888,48.8398412 26.6523438,49.3476562 C26.8111987,49.8554713 26.890625,50.4114553 26.890625,51.015625 C26.890625,51.6197947 26.8111987,52.1744766 26.6523438,52.6796875 C26.4934888,53.1848984 26.2656265,53.6210919 25.96875,53.9882812 C25.6718735,54.3554706 25.3151062,54.6419261 24.8984375,54.8476562 C24.4817688,55.0533864 24.0156276,55.15625 23.5,55.15625 C22.9791641,55.15625 22.5182312,55.0598968 22.1171875,54.8671875 C21.7161438,54.6744782 21.3984387,54.4140641 21.1640625,54.0859375 L21.1640625,57.4296875 L19.8515625,57.4296875 L19.8515625,47.015625 L21.1640625,47.015625 Z M25.53125,50.96875 C25.53125,50.5520813 25.4817713,50.1640643 25.3828125,49.8046875 C25.2838537,49.4453107 25.1380218,49.1341159 24.9453125,48.8710938 C24.7526032,48.6080716 24.5143243,48.4010424 24.2304688,48.25 C23.9466132,48.0989576 23.6223977,48.0234375 23.2578125,48.0234375 C22.9088524,48.0234375 22.6028659,48.0833327 22.3398438,48.203125 C22.0768216,48.3229173 21.8567717,48.4869781 21.6796875,48.6953125 C21.5026033,48.9036469 21.36849,49.1497382 21.2773438,49.4335938 C21.1861975,49.7174493 21.140625,50.02604 21.140625,50.359375 L21.140625,51.65625 C21.140625,51.989585 21.1861975,52.2981757 21.2773438,52.5820312 C21.36849,52.8658868 21.5026033,53.1119781 21.6796875,53.3203125 C21.8567717,53.5286469 22.0768216,53.6927077 22.3398438,53.8125 C22.6028659,53.9322923 22.9088524,53.9921875 23.2578125,53.9921875 C23.6223977,53.9921875 23.9466132,53.9166674 24.2304688,53.765625 C24.5143243,53.6145826 24.7526032,53.4075534 24.9453125,53.1445312 C25.1380218,52.8815091 25.2838537,52.5703143 25.3828125,52.2109375 C25.4817713,51.8515607 25.53125,51.4635437 25.53125,51.046875 L25.53125,50.96875 Z M29.71875,51.4140625 C29.7447918,51.7890644 29.8203119,52.1354151 29.9453125,52.453125 C30.0703131,52.7708349 30.2408843,53.0455718 30.4570313,53.2773438 C30.6731782,53.5091157 30.9283839,53.6888014 31.2226563,53.8164062 C31.5169286,53.9440111 31.8437482,54.0078125 32.203125,54.0078125 C32.6458355,54.0078125 33.0351546,53.9335945 33.3710938,53.7851562 C33.7070329,53.636718 34.0156236,53.450522 34.296875,53.2265625 L34.96875,54.171875 C34.6093732,54.4583348 34.1940128,54.6940095 33.7226563,54.8789062 C33.2512997,55.063803 32.7239613,55.15625 32.140625,55.15625 C31.5624971,55.15625 31.0390648,55.0533864 30.5703125,54.8476562 C30.1015602,54.6419261 29.7018246,54.3554706 29.3710938,53.9882812 C29.0403629,53.6210919 28.7864592,53.1835963 28.609375,52.6757812 C28.4322908,52.1679662 28.34375,51.6145863 28.34375,51.015625 C28.34375,50.406247 28.4309887,49.8476588 28.6054688,49.3398438 C28.7799488,48.8320287 29.0260401,48.3945331 29.34375,48.0273438 C29.6614599,47.6601544 30.0416645,47.3736989 30.484375,47.1679688 C30.9270855,46.9622386 31.4192681,46.859375 31.9609375,46.859375 C32.4869818,46.859375 32.9609354,46.9622386 33.3828125,47.1679688 C33.8046896,47.3736989 34.164061,47.6601544 34.4609375,48.0273438 C34.757814,48.3945331 34.9856763,48.8320287 35.1445313,49.3398438 C35.3033862,49.8476588 35.3828125,50.4010387 35.3828125,51 L35.3828125,51.4140625 L29.71875,51.4140625 Z M31.9140625,48.0078125 C31.5807275,48.0078125 31.2838555,48.072916 31.0234375,48.203125 C30.7630195,48.333334 30.5403655,48.5078114 30.3554688,48.7265625 C30.170572,48.9453136 30.0247401,49.1966132 29.9179688,49.4804688 C29.8111974,49.7643243 29.7500001,50.0572902 29.734375,50.359375 L33.9609375,50.359375 C33.9505208,50.0520818 33.8971359,49.7565118 33.8007813,49.4726562 C33.7044266,49.1888007 33.5690113,48.9388032 33.3945313,48.7226562 C33.2200512,48.5065093 33.0091158,48.333334 32.7617188,48.203125 C32.5143217,48.072916 32.2317724,48.0078125 31.9140625,48.0078125 Z M41.75,54.203125 C41.5156238,54.4739597 41.1992207,54.7005199 40.8007812,54.8828125 C40.4023418,55.0651051 39.9348985,55.15625 39.3984375,55.15625 C39.0026022,55.15625 38.6354184,55.100261 38.296875,54.9882812 C37.9583316,54.8763015 37.6640637,54.7161469 37.4140625,54.5078125 C37.1640612,54.2994781 36.9687507,54.0468765 36.828125,53.75 C36.6874993,53.4531235 36.6171875,53.1171894 36.6171875,52.7421875 C36.6171875,52.4296859 36.6679682,52.1445325 36.7695312,51.8867188 C36.8710943,51.628905 37.014322,51.4036468 37.1992188,51.2109375 C37.3841155,51.0182282 37.6067695,50.8606777 37.8671875,50.7382812 C38.1276055,50.6158848 38.4192692,50.5312502 38.7421875,50.484375 L41.5625,50.1015625 L41.5625,49.59375 C41.5625,49.2916652 41.5156255,49.0377614 41.421875,48.8320312 C41.3281245,48.6263011 41.2018237,48.4635423 41.0429688,48.34375 C40.8841138,48.2239577 40.6966157,48.1380211 40.4804688,48.0859375 C40.2643218,48.0338539 40.0312512,48.0078125 39.78125,48.0078125 C39.3333311,48.0078125 38.9153665,48.0703119 38.5273438,48.1953125 C38.139321,48.3203131 37.7890641,48.466145 37.4765625,48.6328125 L36.984375,47.59375 C37.4427106,47.333332 37.9231746,47.1458339 38.4257812,47.03125 C38.9283879,46.9166661 39.4244767,46.859375 39.9140625,46.859375 C40.8880257,46.859375 41.6249975,47.0794249 42.125,47.5195312 C42.6250025,47.9596376 42.875,48.6015583 42.875,49.4453125 L42.875,53.125 C42.875,53.3906263 42.9270828,53.6132804 43.03125,53.7929688 C43.1354172,53.9726571 43.3020822,54.1145828 43.53125,54.21875 L42.7890625,55.15625 C42.5390613,55.0937497 42.3242196,54.9830737 42.1445312,54.8242188 C41.9648429,54.6653638 41.838542,54.4739595 41.765625,54.25 L41.75,54.203125 Z M39.4140625,51.4453125 C39.1953114,51.4765627 38.9960946,51.520833 38.8164062,51.578125 C38.6367179,51.635417 38.4843756,51.7122391 38.359375,51.8085938 C38.2343744,51.9049484 38.1367191,52.0234368 38.0664062,52.1640625 C37.9960934,52.3046882 37.9609375,52.4765615 37.9609375,52.6796875 C37.9609375,52.9140637 38.0052079,53.1223949 38.09375,53.3046875 C38.1822921,53.4869801 38.3020826,53.6406244 38.453125,53.765625 C38.6041674,53.8906256 38.7799469,53.9856768 38.9804688,54.0507812 C39.1809906,54.1158857 39.3906239,54.1484375 39.609375,54.1484375 C39.8541679,54.1484375 40.0937488,54.1145837 40.328125,54.046875 C40.5625012,53.9791663 40.7708324,53.8815111 40.953125,53.7539062 C41.1354176,53.6263014 41.2825515,53.4713551 41.3945312,53.2890625 C41.506511,53.1067699 41.5625,52.8984387 41.5625,52.6640625 L41.5625,51.125 L39.4140625,51.4453125 Z M45.203125,43.796875 L46.515625,43.796875 L46.515625,53.2109375 C46.515625,53.3411465 46.5273436,53.4557287 46.5507813,53.5546875 C46.5742189,53.6536463 46.614583,53.7369788 46.671875,53.8046875 C46.729167,53.8723962 46.8085932,53.9231769 46.9101563,53.9570312 C47.0117193,53.9908856 47.1380201,54.0078125 47.2890625,54.0078125 C47.45573,54.0078125 47.6067702,54.0026042 47.7421875,53.9921875 C47.8776048,53.9817708 47.9973953,53.9713542 48.1015625,53.9609375 L48.234375,55.0625 L47.78125,55.109375 C47.651041,55.1197917 47.5078133,55.1302083 47.3515625,55.140625 C47.1953117,55.1510417 47.0468757,55.15625 46.90625,55.15625 C46.6718738,55.15625 46.4505219,55.1289065 46.2421875,55.0742188 C46.0338531,55.019531 45.8528654,54.9296881 45.6992188,54.8046875 C45.5455721,54.6796869 45.4244796,54.5182302 45.3359375,54.3203125 C45.2473954,54.1223948 45.203125,53.8802098 45.203125,53.59375 L45.203125,43.796875 Z" id="Appeal" fill="#0B0C0C"></path>
                </g>
                <g id="Oval">
                    <use fill="#006435" fill-rule="evenodd" xlink:href="#path-2"></use>
                    <path stroke="#006435" stroke-width="6" d="M203.333333,29 C196.153632,29 190.333333,23.1797017 190.333333,16 C190.333333,8.82029825 196.153632,3 203.333333,3 C210.513035,3 216.333333,8.82029825 216.333333,16 C216.333333,23.1797017 210.513035,29 203.333333,29 Z"></path>
                </g>
                <path d="M161.257812,50.3984375 C161.257812,51.2369834 161.144532,52.0012986 160.917969,52.6914062 C160.691405,53.3815139 160.352867,53.9713517 159.902344,54.4609375 C159.451821,54.9505233 158.888024,55.3294257 158.210938,55.5976562 C157.533851,55.8658868 156.742192,56 155.835938,56 L151.710938,56 L151.710938,44.796875 L155.835938,44.796875 C156.742192,44.796875 157.533851,44.9309882 158.210938,45.1992188 C158.888024,45.4674493 159.451821,45.8463517 159.902344,46.3359375 C160.352867,46.8255233 160.691405,47.4153611 160.917969,48.1054688 C161.144532,48.7955764 161.257812,49.5598916 161.257812,50.3984375 Z M158.90625,50.1796875 C158.90625,49.7057268 158.847657,49.264325 158.730469,48.8554688 C158.613281,48.4466125 158.425783,48.0911473 158.167969,47.7890625 C157.910155,47.4869777 157.575523,47.2486988 157.164062,47.0742188 C156.752602,46.8997387 156.255211,46.8125 155.671875,46.8125 L153.976562,46.8125 L153.976562,53.984375 L155.671875,53.984375 C156.250003,53.984375 156.74479,53.8971363 157.15625,53.7226562 C157.56771,53.5481762 157.902342,53.3085953 158.160156,53.0039062 C158.41797,52.6992172 158.60677,52.3411479 158.726562,51.9296875 C158.846355,51.5182271 158.90625,51.0781273 158.90625,50.609375 L158.90625,50.1796875 Z M172.203125,52.53125 L172.234375,52.53125 L173.757812,44.796875 L176.21875,44.796875 L173.71875,56 L170.9375,56 L169.242188,47.96875 L167.578125,56 L164.8125,56 L162.3125,44.796875 L164.78125,44.796875 L166.25,52.53125 L166.28125,52.53125 L167.992188,44.796875 L170.539062,44.796875 L172.203125,52.53125 Z M177.789062,44.796875 L182.265625,44.796875 C182.843753,44.796875 183.365883,44.8919261 183.832031,45.0820312 C184.298179,45.2721364 184.692707,45.5325504 185.015625,45.8632812 C185.338543,46.1940121 185.587239,46.5859352 185.761719,47.0390625 C185.936199,47.4921898 186.023438,47.9843723 186.023438,48.515625 C186.023438,49.0468777 185.928386,49.5390602 185.738281,49.9921875 C185.548176,50.4453148 185.27995,50.8372379 184.933594,51.1679688 C184.587238,51.4986996 184.171877,51.7578116 183.6875,51.9453125 C183.203123,52.1328134 182.669274,52.2265625 182.085938,52.2265625 L180.054688,52.2265625 L180.054688,56 L177.789062,56 L177.789062,44.796875 Z M183.6875,48.4765625 C183.6875,48.2109362 183.640625,47.9752614 183.546875,47.7695312 C183.453125,47.5638011 183.317709,47.3880216 183.140625,47.2421875 C182.963541,47.0963534 182.750001,46.9856775 182.5,46.9101562 C182.249999,46.834635 181.968752,46.796875 181.65625,46.796875 L180.054688,46.796875 L180.054688,50.2265625 L181.65625,50.2265625 C181.968752,50.2265625 182.249999,50.1888025 182.5,50.1132812 C182.750001,50.03776 182.963541,49.9270841 183.140625,49.78125 C183.317709,49.6354159 183.453125,49.4596364 183.546875,49.2539062 C183.640625,49.0481761 183.6875,48.8125013 183.6875,48.546875 L183.6875,48.4765625 Z M194.414062,49.7265625 L194.1875,49.7265625 C193.880207,49.7265625 193.587241,49.7578122 193.308594,49.8203125 C193.029947,49.8828128 192.783855,49.9960929 192.570312,50.1601562 C192.35677,50.3242196 192.186199,50.5494777 192.058594,50.8359375 C191.930989,51.1223973 191.867188,51.4895811 191.867188,51.9375 L191.867188,56 L189.710938,56 L189.710938,47.6328125 L191.867188,47.6328125 L191.867188,48.578125 C191.95573,48.4374993 192.070312,48.302084 192.210938,48.171875 C192.351563,48.041666 192.515624,47.9257818 192.703125,47.8242188 C192.890626,47.7226557 193.101561,47.6406253 193.335938,47.578125 C193.570314,47.5156247 193.822915,47.484375 194.09375,47.484375 L194.414062,47.484375 L194.414062,49.7265625 Z M197.5625,52.5625 C197.598959,52.8125013 197.678385,53.0416656 197.800781,53.25 C197.923178,53.4583344 198.078124,53.636718 198.265625,53.7851562 C198.453126,53.9335945 198.66927,54.0494787 198.914062,54.1328125 C199.158855,54.2161463 199.419269,54.2578125 199.695312,54.2578125 C200.013022,54.2578125 200.356769,54.1966152 200.726562,54.0742188 C201.096356,53.9518223 201.434894,53.7734387 201.742188,53.5390625 L202.78125,55.0546875 C202.390623,55.3828141 201.911461,55.6484365 201.34375,55.8515625 C200.776039,56.0546885 200.171878,56.15625 199.53125,56.15625 C198.953122,56.15625 198.408857,56.0572927 197.898438,55.859375 C197.388018,55.6614573 196.941408,55.3750019 196.558594,55 C196.175779,54.6249981 195.873699,54.1692735 195.652344,53.6328125 C195.430988,53.0963515 195.320312,52.4921909 195.320312,51.8203125 C195.320312,51.2057261 195.417968,50.6328152 195.613281,50.1015625 C195.808595,49.5703098 196.082029,49.109377 196.433594,48.71875 C196.785158,48.328123 197.205727,48.0221365 197.695312,47.8007812 C198.184898,47.579426 198.72656,47.46875 199.320312,47.46875 C199.872399,47.46875 200.385414,47.5690094 200.859375,47.7695312 C201.333336,47.9700531 201.74479,48.2513003 202.09375,48.6132812 C202.44271,48.9752622 202.716145,49.4088516 202.914062,49.9140625 C203.11198,50.4192734 203.210938,50.9765595 203.210938,51.5859375 L203.210938,52.5625 L197.5625,52.5625 Z M199.3125,49.34375 C198.848956,49.34375 198.457033,49.4986964 198.136719,49.8085938 C197.816405,50.1184911 197.630209,50.4921853 197.578125,50.9296875 L200.953125,50.9296875 C200.942708,50.486977 200.781252,50.1119807 200.46875,49.8046875 C200.156248,49.4973943 199.770836,49.34375 199.3125,49.34375 Z M205.179688,53.328125 C205.486981,53.604168 205.854165,53.8411448 206.28125,54.0390625 C206.708335,54.2369802 207.140623,54.3359375 207.578125,54.3359375 C207.895835,54.3359375 208.145832,54.2747402 208.328125,54.1523438 C208.510418,54.0299473 208.601562,53.8723968 208.601562,53.6796875 C208.601562,53.3515609 208.250004,53.0963551 207.546875,52.9140625 L206.9375,52.75 C206.635415,52.677083 206.330731,52.5768236 206.023438,52.4492188 C205.716144,52.3216139 205.433595,52.1536469 205.175781,51.9453125 C204.917967,51.7369781 204.709636,51.4830744 204.550781,51.1835938 C204.391926,50.8841131 204.3125,50.5156272 204.3125,50.078125 C204.3125,49.7291649 204.389322,49.397137 204.542969,49.0820312 C204.696615,48.7669255 204.915363,48.4895845 205.199219,48.25 C205.483074,48.0104155 205.828123,47.8203132 206.234375,47.6796875 C206.640627,47.5390618 207.093748,47.46875 207.59375,47.46875 C208.307295,47.46875 208.944008,47.580728 209.503906,47.8046875 C210.063805,48.028647 210.505207,48.2812486 210.828125,48.5625 L209.703125,50 C209.437499,49.8072907 209.1237,49.6419278 208.761719,49.5039062 C208.399738,49.3658847 208.03646,49.296875 207.671875,49.296875 C207.333332,49.296875 207.070313,49.3580723 206.882812,49.4804688 C206.695312,49.6028652 206.601562,49.7499991 206.601562,49.921875 C206.601562,50.1041676 206.683593,50.2513015 206.847656,50.3632812 C207.01172,50.475261 207.249998,50.5729162 207.5625,50.65625 L208.46875,50.9140625 C209.333338,51.1588554 209.953123,51.4895813 210.328125,51.90625 C210.703127,52.3229187 210.890625,52.8489552 210.890625,53.484375 C210.890625,53.8385434 210.817709,54.1757796 210.671875,54.4960938 C210.526041,54.8164079 210.312501,55.1015612 210.03125,55.3515625 C209.749999,55.6015638 209.401044,55.7981764 208.984375,55.9414062 C208.567706,56.0846361 208.093753,56.15625 207.5625,56.15625 C207.156248,56.15625 206.774741,56.119792 206.417969,56.046875 C206.061196,55.973958 205.73047,55.8736986 205.425781,55.7460938 C205.121092,55.6184889 204.846355,55.4739591 204.601562,55.3125 C204.35677,55.1510409 204.148438,54.9895841 203.976562,54.828125 L205.179688,53.328125 Z M214.4375,58.640625 L212.28125,58.640625 L212.28125,47.6328125 L214.4375,47.6328125 L214.4375,48.3515625 C214.671876,48.1067696 214.960936,47.8984384 215.304688,47.7265625 C215.648439,47.5546866 216.065102,47.46875 216.554688,47.46875 C217.106774,47.46875 217.608071,47.579426 218.058594,47.8007812 C218.509117,48.0221365 218.895832,48.326821 219.21875,48.7148438 C219.541668,49.1028665 219.791666,49.5624973 219.96875,50.09375 C220.145834,50.6250027 220.234375,51.2005177 220.234375,51.8203125 C220.234375,52.4401073 220.14323,53.0156223 219.960938,53.546875 C219.778645,54.0781277 219.523439,54.5364564 219.195312,54.921875 C218.867186,55.3072936 218.473961,55.6093739 218.015625,55.828125 C217.557289,56.0468761 217.052086,56.15625 216.5,56.15625 C216.255207,56.15625 216.032553,56.1341148 215.832031,56.0898438 C215.631509,56.0455727 215.447918,55.9843754 215.28125,55.90625 C215.114582,55.8281246 214.960938,55.7356776 214.820312,55.6289062 C214.679687,55.5221349 214.552084,55.4062506 214.4375,55.28125 L214.4375,58.640625 Z M214.375,52.59375 C214.375,52.8177095 214.415364,53.0247386 214.496094,53.2148438 C214.576823,53.4049489 214.692708,53.5703118 214.84375,53.7109375 C214.994792,53.8515632 215.17578,53.9609371 215.386719,54.0390625 C215.597657,54.1171879 215.835936,54.15625 216.101562,54.15625 C216.408856,54.15625 216.680988,54.100261 216.917969,53.9882812 C217.154949,53.8763015 217.354166,53.718751 217.515625,53.515625 C217.677084,53.312499 217.799479,53.071616 217.882812,52.7929688 C217.966146,52.5143215 218.007812,52.208335 218.007812,51.875 L218.007812,51.7734375 C218.007812,51.4401025 217.966146,51.1328139 217.882812,50.8515625 C217.799479,50.5703111 217.677084,50.3268239 217.515625,50.1210938 C217.354166,49.9153636 217.154949,49.7552089 216.917969,49.640625 C216.680988,49.5260411 216.408856,49.46875 216.101562,49.46875 C215.835936,49.46875 215.597657,49.5078121 215.386719,49.5859375 C215.17578,49.6640629 214.994792,49.7734368 214.84375,49.9140625 C214.692708,50.0546882 214.576823,50.2213532 214.496094,50.4140625 C214.415364,50.6067718 214.375,50.815103 214.375,51.0390625 L214.375,52.59375 Z M225.351562,47.46875 C225.971357,47.46875 226.533852,47.579426 227.039062,47.8007812 C227.544273,48.0221365 227.976561,48.328123 228.335938,48.71875 C228.695314,49.109377 228.972655,49.5703098 229.167969,50.1015625 C229.363282,50.6328152 229.460938,51.2057261 229.460938,51.8203125 C229.460938,52.4401073 229.36198,53.0143203 229.164062,53.5429688 C228.966145,54.0716172 228.687502,54.5286439 228.328125,54.9140625 C227.968748,55.2994811 227.536461,55.6028635 227.03125,55.8242188 C226.526039,56.045574 225.966149,56.15625 225.351562,56.15625 C224.731768,56.15625 224.169273,56.045574 223.664062,55.8242188 C223.158852,55.6028635 222.726564,55.2994811 222.367188,54.9140625 C222.007811,54.5286439 221.729168,54.0716172 221.53125,53.5429688 C221.333332,53.0143203 221.234375,52.4401073 221.234375,51.8203125 C221.234375,51.2057261 221.33203,50.6328152 221.527344,50.1015625 C221.722657,49.5703098 221.999998,49.109377 222.359375,48.71875 C222.718752,48.328123 223.152341,48.0221365 223.660156,47.8007812 C224.167971,47.579426 224.731768,47.46875 225.351562,47.46875 Z M225.351562,54.15625 C225.658856,54.15625 225.930988,54.0989589 226.167969,53.984375 C226.404949,53.8697911 226.604166,53.7109385 226.765625,53.5078125 C226.927084,53.3046865 227.049479,53.0611993 227.132812,52.7773438 C227.216146,52.4934882 227.257812,52.1822934 227.257812,51.84375 L227.257812,51.7890625 C227.257812,51.4505191 227.216146,51.1393243 227.132812,50.8554688 C227.049479,50.5716132 226.927084,50.3268239 226.765625,50.1210938 C226.604166,49.9153636 226.404949,49.7552089 226.167969,49.640625 C225.930988,49.5260411 225.658856,49.46875 225.351562,49.46875 C225.044269,49.46875 224.772137,49.5260411 224.535156,49.640625 C224.298176,49.7552089 224.098959,49.9153636 223.9375,50.1210938 C223.776041,50.3268239 223.653646,50.5716132 223.570312,50.8554688 C223.486979,51.1393243 223.445312,51.4505191 223.445312,51.7890625 L223.445312,51.84375 C223.445312,52.1822934 223.486979,52.4934882 223.570312,52.7773438 C223.653646,53.0611993 223.776041,53.3046865 223.9375,53.5078125 C224.098959,53.7109385 224.298176,53.8697911 224.535156,53.984375 C224.772137,54.0989589 225.044269,54.15625 225.351562,54.15625 Z M230.890625,47.6328125 L233.046875,47.6328125 L233.046875,48.3515625 C233.161459,48.2369786 233.290364,48.1263026 233.433594,48.0195312 C233.576824,47.9127599 233.734374,47.8190108 233.90625,47.7382812 C234.078126,47.6575517 234.26953,47.5924482 234.480469,47.5429688 C234.691407,47.4934893 234.924478,47.46875 235.179688,47.46875 C235.632815,47.46875 236.039061,47.542968 236.398438,47.6914062 C236.757814,47.8398445 237.061197,48.0442695 237.308594,48.3046875 C237.555991,48.5651055 237.744791,48.8697899 237.875,49.21875 C238.005209,49.5677101 238.070312,49.9453105 238.070312,50.3515625 L238.070312,56 L235.914062,56 L235.914062,51.1328125 C235.914062,50.835936 235.880209,50.5846364 235.8125,50.3789062 C235.744791,50.1731761 235.652344,50.0065111 235.535156,49.8789062 C235.417968,49.7513014 235.279949,49.6575524 235.121094,49.5976562 C234.962239,49.5377601 234.789063,49.5078125 234.601562,49.5078125 C234.382811,49.5078125 234.178386,49.5468746 233.988281,49.625 C233.798176,49.7031254 233.632813,49.8216138 233.492188,49.9804688 C233.351562,50.1393237 233.242188,50.3385405 233.164062,50.578125 C233.085937,50.8177095 233.046875,51.0989567 233.046875,51.421875 L233.046875,56 L230.890625,56 L230.890625,47.6328125 Z M240.460938,53.328125 C240.768231,53.604168 241.135415,53.8411448 241.5625,54.0390625 C241.989585,54.2369802 242.421873,54.3359375 242.859375,54.3359375 C243.177085,54.3359375 243.427082,54.2747402 243.609375,54.1523438 C243.791668,54.0299473 243.882812,53.8723968 243.882812,53.6796875 C243.882812,53.3515609 243.531254,53.0963551 242.828125,52.9140625 L242.21875,52.75 C241.916665,52.677083 241.611981,52.5768236 241.304688,52.4492188 C240.997394,52.3216139 240.714845,52.1536469 240.457031,51.9453125 C240.199217,51.7369781 239.990886,51.4830744 239.832031,51.1835938 C239.673176,50.8841131 239.59375,50.5156272 239.59375,50.078125 C239.59375,49.7291649 239.670572,49.397137 239.824219,49.0820312 C239.977865,48.7669255 240.196613,48.4895845 240.480469,48.25 C240.764324,48.0104155 241.109373,47.8203132 241.515625,47.6796875 C241.921877,47.5390618 242.374998,47.46875 242.875,47.46875 C243.588545,47.46875 244.225258,47.580728 244.785156,47.8046875 C245.345055,48.028647 245.786457,48.2812486 246.109375,48.5625 L244.984375,50 C244.718749,49.8072907 244.40495,49.6419278 244.042969,49.5039062 C243.680988,49.3658847 243.31771,49.296875 242.953125,49.296875 C242.614582,49.296875 242.351563,49.3580723 242.164062,49.4804688 C241.976562,49.6028652 241.882812,49.7499991 241.882812,49.921875 C241.882812,50.1041676 241.964843,50.2513015 242.128906,50.3632812 C242.29297,50.475261 242.531248,50.5729162 242.84375,50.65625 L243.75,50.9140625 C244.614588,51.1588554 245.234373,51.4895813 245.609375,51.90625 C245.984377,52.3229187 246.171875,52.8489552 246.171875,53.484375 C246.171875,53.8385434 246.098959,54.1757796 245.953125,54.4960938 C245.807291,54.8164079 245.593751,55.1015612 245.3125,55.3515625 C245.031249,55.6015638 244.682294,55.7981764 244.265625,55.9414062 C243.848956,56.0846361 243.375003,56.15625 242.84375,56.15625 C242.437498,56.15625 242.055991,56.119792 241.699219,56.046875 C241.342446,55.973958 241.01172,55.8736986 240.707031,55.7460938 C240.402342,55.6184889 240.127605,55.4739591 239.882812,55.3125 C239.63802,55.1510409 239.429688,54.9895841 239.257812,54.828125 L240.460938,53.328125 Z M249.367188,52.5625 C249.403646,52.8125013 249.483072,53.0416656 249.605469,53.25 C249.727865,53.4583344 249.882812,53.636718 250.070312,53.7851562 C250.257813,53.9335945 250.473957,54.0494787 250.71875,54.1328125 C250.963543,54.2161463 251.223957,54.2578125 251.5,54.2578125 C251.81771,54.2578125 252.161456,54.1966152 252.53125,54.0742188 C252.901044,53.9518223 253.239582,53.7734387 253.546875,53.5390625 L254.585938,55.0546875 C254.195311,55.3828141 253.716149,55.6484365 253.148438,55.8515625 C252.580726,56.0546885 251.976566,56.15625 251.335938,56.15625 C250.75781,56.15625 250.213544,56.0572927 249.703125,55.859375 C249.192706,55.6614573 248.746096,55.3750019 248.363281,55 C247.980467,54.6249981 247.678387,54.1692735 247.457031,53.6328125 C247.235676,53.0963515 247.125,52.4921909 247.125,51.8203125 C247.125,51.2057261 247.222655,50.6328152 247.417969,50.1015625 C247.613282,49.5703098 247.886717,49.109377 248.238281,48.71875 C248.589846,48.328123 249.010414,48.0221365 249.5,47.8007812 C249.989586,47.579426 250.531247,47.46875 251.125,47.46875 C251.677086,47.46875 252.190102,47.5690094 252.664062,47.7695312 C253.138023,47.9700531 253.549477,48.2513003 253.898438,48.6132812 C254.247398,48.9752622 254.520832,49.4088516 254.71875,49.9140625 C254.916668,50.4192734 255.015625,50.9765595 255.015625,51.5859375 L255.015625,52.5625 L249.367188,52.5625 Z M251.117188,49.34375 C250.653644,49.34375 250.26172,49.4986964 249.941406,49.8085938 C249.621092,50.1184911 249.434896,50.4921853 249.382812,50.9296875 L252.757812,50.9296875 C252.747396,50.486977 252.585939,50.1119807 252.273438,49.8046875 C251.960936,49.4973943 251.575523,49.34375 251.117188,49.34375 Z" id="DWP-response" fill="#231F1F"></path>
                <g id="Group-5" transform="translate(328.000000, 0.000000)">
                    <g id="Oval" transform="translate(53.666667, 16.000000) rotate(-90.000000) translate(-53.666667, -16.000000) ">
                        <use fill="#FFFFFF" fill-rule="evenodd" xlink:href="#path-3"></use>
                        <path stroke="#006435" stroke-width="6" d="M53.6666667,29 C46.4869649,29 40.6666667,23.1797017 40.6666667,16 C40.6666667,8.82029825 46.4869649,3 53.6666667,3 C60.8463684,3 66.6666667,8.82029825 66.6666667,16 C66.6666667,23.1797017 60.8463684,29 53.6666667,29 Z"></path>
                    </g>
                    <path d="M7.8984375,49.8515625 L2,49.8515625 L2,55 L0.625,55 L0.625,43.796875 L2,43.796875 L2,48.6640625 L7.8984375,48.6640625 L7.8984375,43.796875 L9.28125,43.796875 L9.28125,55 L7.8984375,55 L7.8984375,49.8515625 Z M12.7265625,51.4140625 C12.7526043,51.7890644 12.8281244,52.1354151 12.953125,52.453125 C13.0781256,52.7708349 13.2486968,53.0455718 13.4648438,53.2773438 C13.6809907,53.5091157 13.9361964,53.6888014 14.2304688,53.8164062 C14.5247411,53.9440111 14.8515607,54.0078125 15.2109375,54.0078125 C15.653648,54.0078125 16.0429671,53.9335945 16.3789062,53.7851562 C16.7148454,53.636718 17.0234361,53.450522 17.3046875,53.2265625 L17.9765625,54.171875 C17.6171857,54.4583348 17.2018253,54.6940095 16.7304688,54.8789062 C16.2591122,55.063803 15.7317737,55.15625 15.1484375,55.15625 C14.5703096,55.15625 14.0468773,55.0533864 13.578125,54.8476562 C13.1093727,54.6419261 12.7096371,54.3554706 12.3789062,53.9882812 C12.0481754,53.6210919 11.7942717,53.1835963 11.6171875,52.6757812 C11.4401033,52.1679662 11.3515625,51.6145863 11.3515625,51.015625 C11.3515625,50.406247 11.4388012,49.8476588 11.6132812,49.3398438 C11.7877613,48.8320287 12.0338526,48.3945331 12.3515625,48.0273438 C12.6692724,47.6601544 13.049477,47.3736989 13.4921875,47.1679688 C13.934898,46.9622386 14.4270806,46.859375 14.96875,46.859375 C15.4947943,46.859375 15.9687479,46.9622386 16.390625,47.1679688 C16.8125021,47.3736989 17.1718735,47.6601544 17.46875,48.0273438 C17.7656265,48.3945331 17.9934888,48.8320287 18.1523438,49.3398438 C18.3111987,49.8476588 18.390625,50.4010387 18.390625,51 L18.390625,51.4140625 L12.7265625,51.4140625 Z M14.921875,48.0078125 C14.58854,48.0078125 14.291668,48.072916 14.03125,48.203125 C13.770832,48.333334 13.548178,48.5078114 13.3632812,48.7265625 C13.1783845,48.9453136 13.0325526,49.1966132 12.9257812,49.4804688 C12.8190099,49.7643243 12.7578126,50.0572902 12.7421875,50.359375 L16.96875,50.359375 C16.9583333,50.0520818 16.9049484,49.7565118 16.8085938,49.4726562 C16.7122391,49.1888007 16.5768238,48.9388032 16.4023438,48.7226562 C16.2278637,48.5065093 16.0169283,48.333334 15.7695312,48.203125 C15.5221342,48.072916 15.2395849,48.0078125 14.921875,48.0078125 Z M24.7578125,54.203125 C24.5234363,54.4739597 24.2070332,54.7005199 23.8085938,54.8828125 C23.4101543,55.0651051 22.942711,55.15625 22.40625,55.15625 C22.0104147,55.15625 21.6432309,55.100261 21.3046875,54.9882812 C20.9661441,54.8763015 20.6718763,54.7161469 20.421875,54.5078125 C20.1718737,54.2994781 19.9765632,54.0468765 19.8359375,53.75 C19.6953118,53.4531235 19.625,53.1171894 19.625,52.7421875 C19.625,52.4296859 19.6757807,52.1445325 19.7773438,51.8867188 C19.8789068,51.628905 20.0221345,51.4036468 20.2070312,51.2109375 C20.391928,51.0182282 20.614582,50.8606777 20.875,50.7382812 C21.135418,50.6158848 21.4270817,50.5312502 21.75,50.484375 L24.5703125,50.1015625 L24.5703125,49.59375 C24.5703125,49.2916652 24.523438,49.0377614 24.4296875,48.8320312 C24.335937,48.6263011 24.2096362,48.4635423 24.0507812,48.34375 C23.8919263,48.2239577 23.7044282,48.1380211 23.4882812,48.0859375 C23.2721343,48.0338539 23.0390638,48.0078125 22.7890625,48.0078125 C22.3411436,48.0078125 21.923179,48.0703119 21.5351562,48.1953125 C21.1471335,48.3203131 20.7968766,48.466145 20.484375,48.6328125 L19.9921875,47.59375 C20.4505231,47.333332 20.9309871,47.1458339 21.4335938,47.03125 C21.9362004,46.9166661 22.4322892,46.859375 22.921875,46.859375 C23.8958382,46.859375 24.63281,47.0794249 25.1328125,47.5195312 C25.632815,47.9596376 25.8828125,48.6015583 25.8828125,49.4453125 L25.8828125,53.125 C25.8828125,53.3906263 25.9348953,53.6132804 26.0390625,53.7929688 C26.1432297,53.9726571 26.3098947,54.1145828 26.5390625,54.21875 L25.796875,55.15625 C25.5468737,55.0937497 25.3320321,54.9830737 25.1523438,54.8242188 C24.9726554,54.6653638 24.8463545,54.4739595 24.7734375,54.25 L24.7578125,54.203125 Z M22.421875,51.4453125 C22.2031239,51.4765627 22.0039071,51.520833 21.8242188,51.578125 C21.6445304,51.635417 21.4921881,51.7122391 21.3671875,51.8085938 C21.2421869,51.9049484 21.1445316,52.0234368 21.0742188,52.1640625 C21.0039059,52.3046882 20.96875,52.4765615 20.96875,52.6796875 C20.96875,52.9140637 21.0130204,53.1223949 21.1015625,53.3046875 C21.1901046,53.4869801 21.3098951,53.6406244 21.4609375,53.765625 C21.6119799,53.8906256 21.7877594,53.9856768 21.9882812,54.0507812 C22.1888031,54.1158857 22.3984364,54.1484375 22.6171875,54.1484375 C22.8619804,54.1484375 23.1015613,54.1145837 23.3359375,54.046875 C23.5703137,53.9791663 23.7786449,53.8815111 23.9609375,53.7539062 C24.1432301,53.6263014 24.290364,53.4713551 24.4023438,53.2890625 C24.5143235,53.1067699 24.5703125,52.8984387 24.5703125,52.6640625 L24.5703125,51.125 L22.421875,51.4453125 Z M32.34375,48.1875 L32.1328125,48.1875 C31.7942691,48.1875 31.4713557,48.2265621 31.1640625,48.3046875 C30.8567693,48.3828129 30.5859387,48.5234365 30.3515625,48.7265625 C30.1171863,48.9296885 29.9296882,49.2070295 29.7890625,49.5585938 C29.6484368,49.910158 29.578125,50.3593723 29.578125,50.90625 L29.578125,55 L28.265625,55 L28.265625,47.015625 L29.578125,47.015625 L29.578125,48.28125 C29.6770838,48.0468738 29.809895,47.8411467 29.9765625,47.6640625 C30.14323,47.4869783 30.3320302,47.3398443 30.5429688,47.2226562 C30.7539073,47.1054682 30.9804675,47.0182295 31.2226562,46.9609375 C31.464845,46.9036455 31.7109363,46.875 31.9609375,46.875 L32.34375,46.875 L32.34375,48.1875 Z M35.1953125,55 L33.8828125,55 L33.8828125,47.015625 L35.1953125,47.015625 L35.1953125,55 Z M33.640625,44.7109375 C33.640625,44.5859369 33.6653643,44.4687505 33.7148438,44.359375 C33.7643232,44.2499995 33.8294267,44.1536463 33.9101562,44.0703125 C33.9908858,43.9869787 34.087239,43.9205732 34.1992188,43.8710938 C34.3111985,43.8216143 34.4296869,43.796875 34.5546875,43.796875 C34.6796881,43.796875 34.7968745,43.8216143 34.90625,43.8710938 C35.0156255,43.9205732 35.1106767,43.9869787 35.1914062,44.0703125 C35.2721358,44.1536463 35.3372393,44.2499995 35.3867188,44.359375 C35.4361982,44.4687505 35.4609375,44.5859369 35.4609375,44.7109375 C35.4609375,44.8359381 35.4361982,44.9544265 35.3867188,45.0664062 C35.3372393,45.178386 35.2721358,45.2747392 35.1914062,45.3554688 C35.1106767,45.4361983 35.0156255,45.5013018 34.90625,45.5507812 C34.7968745,45.6002607 34.6796881,45.625 34.5546875,45.625 C34.4296869,45.625 34.3111985,45.6002607 34.1992188,45.5507812 C34.087239,45.5013018 33.9908858,45.4361983 33.9101562,45.3554688 C33.8294267,45.2747392 33.7643232,45.178386 33.7148438,45.0664062 C33.6653643,44.9544265 33.640625,44.8359381 33.640625,44.7109375 Z M37.59375,47.015625 L38.90625,47.015625 L38.90625,47.9296875 C39.1770847,47.559894 39.5117168,47.2890634 39.9101562,47.1171875 C40.3085957,46.9453116 40.7526017,46.859375 41.2421875,46.859375 C41.684898,46.859375 42.072915,46.9322909 42.40625,47.078125 C42.739585,47.2239591 43.018228,47.4218738 43.2421875,47.671875 C43.466147,47.9218762 43.634114,48.2109359 43.7460938,48.5390625 C43.8580735,48.8671891 43.9140625,49.2135398 43.9140625,49.578125 L43.9140625,55 L42.6015625,55 L42.6015625,49.9921875 C42.6015625,49.6432274 42.5585942,49.3450533 42.4726562,49.0976562 C42.3867183,48.8502592 42.269532,48.6497404 42.1210938,48.4960938 C41.9726555,48.3424471 41.7981781,48.2304691 41.5976562,48.1601562 C41.3971344,48.0898434 41.1822928,48.0546875 40.953125,48.0546875 C40.7031237,48.0546875 40.4570325,48.10026 40.2148438,48.1914062 C39.972655,48.2825525 39.7539072,48.4192699 39.5585938,48.6015625 C39.3632803,48.7838551 39.2057298,49.0130195 39.0859375,49.2890625 C38.9661452,49.5651055 38.90625,49.8906231 38.90625,50.265625 L38.90625,55 L37.59375,55 L37.59375,47.015625 Z M45.796875,50.5703125 C45.796875,50.0442682 45.8723951,49.5546898 46.0234375,49.1015625 C46.1744799,48.6484352 46.3906236,48.2565121 46.671875,47.9257812 C46.9531264,47.5950504 47.2929668,47.3346364 47.6914062,47.1445312 C48.0898457,46.9544261 48.5364559,46.859375 49.03125,46.859375 C49.4687522,46.859375 49.8854147,46.9440096 50.28125,47.1132812 C50.6770853,47.2825529 51.0130195,47.5546856 51.2890625,47.9296875 L51.2890625,47.015625 L52.6015625,47.015625 L52.6015625,55 C52.6015625,55.4947941 52.5013031,55.9101546 52.3007812,56.2460938 C52.1002594,56.5820329 51.8385433,56.8515615 51.515625,57.0546875 C51.1927067,57.2578135 50.826825,57.4036454 50.4179688,57.4921875 C50.0091125,57.5807296 49.5937521,57.625 49.171875,57.625 C48.9374988,57.625 48.6940117,57.6119793 48.4414062,57.5859375 C48.1888008,57.5598957 47.9348971,57.5208336 47.6796875,57.46875 C47.4244779,57.4166664 47.1731783,57.3502608 46.9257812,57.2695312 C46.6783842,57.1888017 46.4427095,57.0937505 46.21875,56.984375 L46.6953125,55.8828125 C46.8515633,55.9557295 47.0156241,56.0273434 47.1875,56.0976562 C47.3593759,56.1679691 47.5455719,56.2317705 47.7460938,56.2890625 C47.9466156,56.3463545 48.1614572,56.393229 48.390625,56.4296875 C48.6197928,56.466146 48.8697903,56.484375 49.140625,56.484375 C49.47396,56.484375 49.7747382,56.4505212 50.0429688,56.3828125 C50.3111993,56.3151038 50.5364574,56.2096361 50.71875,56.0664062 C50.9010426,55.9231764 51.0416662,55.7408865 51.140625,55.5195312 C51.2395838,55.298176 51.2890625,55.0338557 51.2890625,54.7265625 L51.2890625,53.2109375 C51.0130195,53.5859394 50.6770853,53.8580721 50.28125,54.0273438 C49.8854147,54.1966154 49.4687522,54.28125 49.03125,54.28125 C48.5364559,54.28125 48.0898457,54.1861989 47.6914062,53.9960938 C47.2929668,53.8059886 46.9531264,53.5442725 46.671875,53.2109375 C46.3906236,52.8776025 46.1744799,52.4856793 46.0234375,52.0351562 C45.8723951,51.5846332 45.796875,51.0963568 45.796875,50.5703125 Z M51.3203125,50.5390625 C51.3203125,50.1796857 51.2812504,49.8476578 51.203125,49.5429688 C51.1249996,49.2382797 51.002605,48.9726574 50.8359375,48.7460938 C50.66927,48.5195301 50.4570325,48.3424486 50.1992188,48.2148438 C49.941405,48.0872389 49.6328143,48.0234375 49.2734375,48.0234375 C48.9088523,48.0234375 48.5937513,48.088541 48.328125,48.21875 C48.0624987,48.348959 47.8424488,48.5273426 47.6679688,48.7539062 C47.4934887,48.9804699 47.3645838,49.2473943 47.28125,49.5546875 C47.1979162,49.8619807 47.15625,50.1901024 47.15625,50.5390625 L47.15625,50.6015625 C47.15625,50.9505226 47.1979162,51.2773422 47.28125,51.5820312 C47.3645838,51.8867203 47.4934887,52.1523426 47.6679688,52.3789062 C47.8424488,52.6054699 48.0624987,52.7838535 48.328125,52.9140625 C48.5937513,53.0442715 48.9088523,53.109375 49.2734375,53.109375 C49.6328143,53.109375 49.941405,53.0455736 50.1992188,52.9179688 C50.4570325,52.7903639 50.66927,52.6145845 50.8359375,52.390625 C51.002605,52.1666655 51.1249996,51.9010432 51.203125,51.59375 C51.2812504,51.2864568 51.3203125,50.9557309 51.3203125,50.6015625 L51.3203125,50.5390625 Z M59.515625,55 L58.203125,55 L58.203125,43.796875 L59.515625,43.796875 L59.515625,47.9296875 C59.7500012,47.6015609 60.0677063,47.3411468 60.46875,47.1484375 C60.8697937,46.9557282 61.3307266,46.859375 61.8515625,46.859375 C62.3671901,46.859375 62.8333312,46.9622386 63.25,47.1679688 C63.6666687,47.3736989 64.023436,47.6614565 64.3203125,48.03125 C64.617189,48.4010435 64.8450513,48.8398412 65.0039062,49.3476562 C65.1627612,49.8554713 65.2421875,50.4114553 65.2421875,51.015625 C65.2421875,51.6197947 65.1627612,52.1744766 65.0039062,52.6796875 C64.8450513,53.1848984 64.617189,53.6210919 64.3203125,53.9882812 C64.023436,54.3554706 63.6666687,54.6419261 63.25,54.8476562 C62.8333312,55.0533864 62.3671901,55.15625 61.8515625,55.15625 C61.3307266,55.15625 60.8697937,55.0598968 60.46875,54.8671875 C60.0677063,54.6744782 59.7500012,54.4140641 59.515625,54.0859375 L59.515625,55 Z M63.8828125,50.96875 C63.8828125,50.5520813 63.8333338,50.1640643 63.734375,49.8046875 C63.6354162,49.4453107 63.4895843,49.1341159 63.296875,48.8710938 C63.1041657,48.6080716 62.8658868,48.4010424 62.5820312,48.25 C62.2981757,48.0989576 61.9739602,48.0234375 61.609375,48.0234375 C61.2604149,48.0234375 60.9544284,48.0833327 60.6914062,48.203125 C60.4283841,48.3229173 60.2083342,48.4869781 60.03125,48.6953125 C59.8541658,48.9036469 59.7200525,49.1497382 59.6289062,49.4335938 C59.53776,49.7174493 59.4921875,50.02604 59.4921875,50.359375 L59.4921875,51.65625 C59.4921875,51.989585 59.53776,52.2981757 59.6289062,52.5820312 C59.7200525,52.8658868 59.8541658,53.1119781 60.03125,53.3203125 C60.2083342,53.5286469 60.4283841,53.6927077 60.6914062,53.8125 C60.9544284,53.9322923 61.2604149,53.9921875 61.609375,53.9921875 C61.9739602,53.9921875 62.2981757,53.9166674 62.5820312,53.765625 C62.8658868,53.6145826 63.1041657,53.4075534 63.296875,53.1445312 C63.4895843,52.8815091 63.6354162,52.5703143 63.734375,52.2109375 C63.8333338,51.8515607 63.8828125,51.4635437 63.8828125,51.046875 L63.8828125,50.96875 Z M70.375,46.859375 C70.9270861,46.859375 71.4296852,46.9622386 71.8828125,47.1679688 C72.3359398,47.3736989 72.7226546,47.6601544 73.0429688,48.0273438 C73.3632829,48.3945331 73.6119783,48.8320287 73.7890625,49.3398438 C73.9661467,49.8476588 74.0546875,50.406247 74.0546875,51.015625 C74.0546875,51.6145863 73.9661467,52.1679662 73.7890625,52.6757812 C73.6119783,53.1835963 73.3632829,53.6210919 73.0429688,53.9882812 C72.7226546,54.3554706 72.3359398,54.6419261 71.8828125,54.8476562 C71.4296852,55.0533864 70.9270861,55.15625 70.375,55.15625 C69.8229139,55.15625 69.3216168,55.0533864 68.8710938,54.8476562 C68.4205707,54.6419261 68.0338558,54.3554706 67.7109375,53.9882812 C67.3880192,53.6210919 67.1380217,53.1835963 66.9609375,52.6757812 C66.7838533,52.1679662 66.6953125,51.6145863 66.6953125,51.015625 C66.6953125,50.406247 66.7838533,49.8476588 66.9609375,49.3398438 C67.1380217,48.8320287 67.3880192,48.3945331 67.7109375,48.0273438 C68.0338558,47.6601544 68.4205707,47.3736989 68.8710938,47.1679688 C69.3216168,46.9622386 69.8229139,46.859375 70.375,46.859375 Z M70.375,54.0078125 C70.7552102,54.0078125 71.0898423,53.9283862 71.3789062,53.7695312 C71.6679702,53.6106763 71.9101553,53.3958347 72.1054688,53.125 C72.3007822,52.8541653 72.4479162,52.5403664 72.546875,52.1835938 C72.6458338,51.8268211 72.6953125,51.453127 72.6953125,51.0625 L72.6953125,50.96875 C72.6953125,50.5677063 72.6458338,50.1875018 72.546875,49.828125 C72.4479162,49.4687482 72.3007822,49.1549493 72.1054688,48.8867188 C71.9101553,48.6184882 71.6679702,48.4049487 71.3789062,48.2460938 C71.0898423,48.0872388 70.7552102,48.0078125 70.375,48.0078125 C69.9947898,48.0078125 69.6601577,48.0872388 69.3710938,48.2460938 C69.0820298,48.4049487 68.8398447,48.6184882 68.6445312,48.8867188 C68.4492178,49.1549493 68.3020838,49.4687482 68.203125,49.828125 C68.1041662,50.1875018 68.0546875,50.5677063 68.0546875,50.96875 L68.0546875,51.0625 C68.0546875,51.453127 68.1041662,51.8268211 68.203125,52.1835938 C68.3020838,52.5403664 68.4492178,52.8541653 68.6445312,53.125 C68.8398447,53.3958347 69.0820298,53.6106763 69.3710938,53.7695312 C69.6601577,53.9283862 69.9947898,54.0078125 70.375,54.0078125 Z M79.171875,46.859375 C79.7239611,46.859375 80.2265602,46.9622386 80.6796875,47.1679688 C81.1328148,47.3736989 81.5195296,47.6601544 81.8398438,48.0273438 C82.1601579,48.3945331 82.4088533,48.8320287 82.5859375,49.3398438 C82.7630217,49.8476588 82.8515625,50.406247 82.8515625,51.015625 C82.8515625,51.6145863 82.7630217,52.1679662 82.5859375,52.6757812 C82.4088533,53.1835963 82.1601579,53.6210919 81.8398438,53.9882812 C81.5195296,54.3554706 81.1328148,54.6419261 80.6796875,54.8476562 C80.2265602,55.0533864 79.7239611,55.15625 79.171875,55.15625 C78.6197889,55.15625 78.1184918,55.0533864 77.6679688,54.8476562 C77.2174457,54.6419261 76.8307308,54.3554706 76.5078125,53.9882812 C76.1848942,53.6210919 75.9348967,53.1835963 75.7578125,52.6757812 C75.5807283,52.1679662 75.4921875,51.6145863 75.4921875,51.015625 C75.4921875,50.406247 75.5807283,49.8476588 75.7578125,49.3398438 C75.9348967,48.8320287 76.1848942,48.3945331 76.5078125,48.0273438 C76.8307308,47.6601544 77.2174457,47.3736989 77.6679688,47.1679688 C78.1184918,46.9622386 78.6197889,46.859375 79.171875,46.859375 Z M79.171875,54.0078125 C79.5520852,54.0078125 79.8867173,53.9283862 80.1757812,53.7695312 C80.4648452,53.6106763 80.7070303,53.3958347 80.9023438,53.125 C81.0976572,52.8541653 81.2447912,52.5403664 81.34375,52.1835938 C81.4427088,51.8268211 81.4921875,51.453127 81.4921875,51.0625 L81.4921875,50.96875 C81.4921875,50.5677063 81.4427088,50.1875018 81.34375,49.828125 C81.2447912,49.4687482 81.0976572,49.1549493 80.9023438,48.8867188 C80.7070303,48.6184882 80.4648452,48.4049487 80.1757812,48.2460938 C79.8867173,48.0872388 79.5520852,48.0078125 79.171875,48.0078125 C78.7916648,48.0078125 78.4570327,48.0872388 78.1679688,48.2460938 C77.8789048,48.4049487 77.6367197,48.6184882 77.4414062,48.8867188 C77.2460928,49.1549493 77.0989588,49.4687482 77,49.828125 C76.9010412,50.1875018 76.8515625,50.5677063 76.8515625,50.96875 L76.8515625,51.0625 C76.8515625,51.453127 76.9010412,51.8268211 77,52.1835938 C77.0989588,52.5403664 77.2460928,52.8541653 77.4414062,53.125 C77.6367197,53.3958347 77.8789048,53.6106763 78.1679688,53.7695312 C78.4570327,53.9283862 78.7916648,54.0078125 79.171875,54.0078125 Z M86.0859375,50.9375 L89.84375,47.015625 L91.4921875,47.015625 L88.453125,50.1875 L91.6328125,55 L90.03125,55 L87.5234375,51.0625 L86.0859375,52.5390625 L86.0859375,55 L84.7734375,55 L84.7734375,43.796875 L86.0859375,43.796875 L86.0859375,50.9375 Z M93.6484375,51.4140625 C93.6744793,51.7890644 93.7499994,52.1354151 93.875,52.453125 C94.0000006,52.7708349 94.1705718,53.0455718 94.3867188,53.2773438 C94.6028657,53.5091157 94.8580714,53.6888014 95.1523438,53.8164062 C95.4466161,53.9440111 95.7734357,54.0078125 96.1328125,54.0078125 C96.575523,54.0078125 96.9648421,53.9335945 97.3007812,53.7851562 C97.6367204,53.636718 97.9453111,53.450522 98.2265625,53.2265625 L98.8984375,54.171875 C98.5390607,54.4583348 98.1237003,54.6940095 97.6523438,54.8789062 C97.1809872,55.063803 96.6536488,55.15625 96.0703125,55.15625 C95.4921846,55.15625 94.9687523,55.0533864 94.5,54.8476562 C94.0312477,54.6419261 93.6315121,54.3554706 93.3007812,53.9882812 C92.9700504,53.6210919 92.7161467,53.1835963 92.5390625,52.6757812 C92.3619783,52.1679662 92.2734375,51.6145863 92.2734375,51.015625 C92.2734375,50.406247 92.3606762,49.8476588 92.5351562,49.3398438 C92.7096363,48.8320287 92.9557276,48.3945331 93.2734375,48.0273438 C93.5911474,47.6601544 93.971352,47.3736989 94.4140625,47.1679688 C94.856773,46.9622386 95.3489556,46.859375 95.890625,46.859375 C96.4166693,46.859375 96.8906229,46.9622386 97.3125,47.1679688 C97.7343771,47.3736989 98.0937485,47.6601544 98.390625,48.0273438 C98.6875015,48.3945331 98.9153638,48.8320287 99.0742188,49.3398438 C99.2330737,49.8476588 99.3125,50.4010387 99.3125,51 L99.3125,51.4140625 L93.6484375,51.4140625 Z M95.84375,48.0078125 C95.510415,48.0078125 95.213543,48.072916 94.953125,48.203125 C94.692707,48.333334 94.470053,48.5078114 94.2851562,48.7265625 C94.1002595,48.9453136 93.9544276,49.1966132 93.8476562,49.4804688 C93.7408849,49.7643243 93.6796876,50.0572902 93.6640625,50.359375 L97.890625,50.359375 C97.8802083,50.0520818 97.8268234,49.7565118 97.7304688,49.4726562 C97.6341141,49.1888007 97.4986988,48.9388032 97.3242188,48.7226562 C97.1497387,48.5065093 96.9388033,48.333334 96.6914062,48.203125 C96.4440092,48.072916 96.1614599,48.0078125 95.84375,48.0078125 Z M106.398437,54.0859375 C106.164061,54.4140641 105.845054,54.6744782 105.441406,54.8671875 C105.037758,55.0598968 104.578128,55.15625 104.0625,55.15625 C103.546872,55.15625 103.080731,55.0533864 102.664062,54.8476562 C102.247394,54.6419261 101.890626,54.3554706 101.59375,53.9882812 C101.296874,53.6210919 101.069011,53.1848984 100.910156,52.6796875 C100.751301,52.1744766 100.671875,51.6197947 100.671875,51.015625 C100.671875,50.4114553 100.751301,49.8554713 100.910156,49.3476562 C101.069011,48.8398412 101.296874,48.4010435 101.59375,48.03125 C101.890626,47.6614565 102.247394,47.3736989 102.664062,47.1679688 C103.080731,46.9622386 103.546872,46.859375 104.0625,46.859375 C104.578128,46.859375 105.037758,46.9557282 105.441406,47.1484375 C105.845054,47.3411468 106.164061,47.6015609 106.398437,47.9296875 L106.398437,43.796875 L107.710937,43.796875 L107.710937,55 L106.398437,55 L106.398437,54.0859375 Z M102.03125,51.046875 C102.03125,51.4635437 102.080729,51.8515607 102.179687,52.2109375 C102.278646,52.5703143 102.424478,52.8815091 102.617187,53.1445312 C102.809897,53.4075534 103.046874,53.6145826 103.328125,53.765625 C103.609376,53.9166674 103.934894,53.9921875 104.304687,53.9921875 C104.653648,53.9921875 104.959634,53.9322923 105.222656,53.8125 C105.485678,53.6927077 105.705728,53.5286469 105.882812,53.3203125 C106.059897,53.1119781 106.192708,52.8658868 106.28125,52.5820312 C106.369792,52.2981757 106.414062,51.989585 106.414062,51.65625 L106.414062,50.359375 C106.414062,50.02604 106.369792,49.7174493 106.28125,49.4335938 C106.192708,49.1497382 106.059897,48.9036469 105.882812,48.6953125 C105.705728,48.4869781 105.485678,48.3229173 105.222656,48.203125 C104.959634,48.0833327 104.653648,48.0234375 104.304687,48.0234375 C103.934894,48.0234375 103.609376,48.0989576 103.328125,48.25 C103.046874,48.4010424 102.809897,48.6080716 102.617187,48.8710938 C102.424478,49.1341159 102.278646,49.4453107 102.179687,49.8046875 C102.080729,50.1640643 102.03125,50.5520813 102.03125,50.96875 L102.03125,51.046875 Z" id="Hearing-booked" fill="#231F1F"></path>
                </g>
                <g id="Group-2" transform="translate(534.000000, 0.000000)">
                    <g id="Oval" transform="translate(26.000000, 16.000000) rotate(-90.000000) translate(-26.000000, -16.000000) ">
                        <use fill="#FFFFFF" fill-rule="evenodd" xlink:href="#path-4"></use>
                        <path stroke="#006435" stroke-width="6" d="M26,29 C18.8202983,29 13,23.1797017 13,16 C13,8.82029825 18.8202983,3 26,3 C33.1797017,3 39,8.82029825 39,16 C39,23.1797017 33.1797017,29 26,29 Z"></path>
                    </g>
                    <path d="M7.45703125,49.8515625 L1.55859375,49.8515625 L1.55859375,55 L0.18359375,55 L0.18359375,43.796875 L1.55859375,43.796875 L1.55859375,48.6640625 L7.45703125,48.6640625 L7.45703125,43.796875 L8.83984375,43.796875 L8.83984375,55 L7.45703125,55 L7.45703125,49.8515625 Z M12.2851562,51.4140625 C12.311198,51.7890644 12.3867181,52.1354151 12.5117188,52.453125 C12.6367194,52.7708349 12.8072906,53.0455718 13.0234375,53.2773438 C13.2395844,53.5091157 13.4947902,53.6888014 13.7890625,53.8164062 C14.0833348,53.9440111 14.4101545,54.0078125 14.7695312,54.0078125 C15.2122418,54.0078125 15.6015608,53.9335945 15.9375,53.7851562 C16.2734392,53.636718 16.5820298,53.450522 16.8632812,53.2265625 L17.5351562,54.171875 C17.1757795,54.4583348 16.760419,54.6940095 16.2890625,54.8789062 C15.817706,55.063803 15.2903675,55.15625 14.7070312,55.15625 C14.1289034,55.15625 13.6054711,55.0533864 13.1367188,54.8476562 C12.6679664,54.6419261 12.2682308,54.3554706 11.9375,53.9882812 C11.6067692,53.6210919 11.3528655,53.1835963 11.1757812,52.6757812 C10.998697,52.1679662 10.9101562,51.6145863 10.9101562,51.015625 C10.9101562,50.406247 10.997395,49.8476588 11.171875,49.3398438 C11.346355,48.8320287 11.5924463,48.3945331 11.9101562,48.0273438 C12.2278662,47.6601544 12.6080707,47.3736989 13.0507812,47.1679688 C13.4934918,46.9622386 13.9856744,46.859375 14.5273438,46.859375 C15.053388,46.859375 15.5273416,46.9622386 15.9492188,47.1679688 C16.3710959,47.3736989 16.7304673,47.6601544 17.0273438,48.0273438 C17.3242202,48.3945331 17.5520825,48.8320287 17.7109375,49.3398438 C17.8697925,49.8476588 17.9492188,50.4010387 17.9492188,51 L17.9492188,51.4140625 L12.2851562,51.4140625 Z M14.4804687,48.0078125 C14.1471338,48.0078125 13.8502617,48.072916 13.5898438,48.203125 C13.3294258,48.333334 13.1067718,48.5078114 12.921875,48.7265625 C12.7369782,48.9453136 12.5911464,49.1966132 12.484375,49.4804688 C12.3776036,49.7643243 12.3164063,50.0572902 12.3007812,50.359375 L16.5273438,50.359375 C16.516927,50.0520818 16.4635421,49.7565118 16.3671875,49.4726562 C16.2708329,49.1888007 16.1354175,48.9388032 15.9609375,48.7226562 C15.7864575,48.5065093 15.5755221,48.333334 15.328125,48.203125 C15.0807279,48.072916 14.7981787,48.0078125 14.4804687,48.0078125 Z M24.3164062,54.203125 C24.0820301,54.4739597 23.765627,54.7005199 23.3671875,54.8828125 C22.968748,55.0651051 22.5013048,55.15625 21.9648438,55.15625 C21.5690084,55.15625 21.2018246,55.100261 20.8632812,54.9882812 C20.5247379,54.8763015 20.23047,54.7161469 19.9804688,54.5078125 C19.7304675,54.2994781 19.535157,54.0468765 19.3945312,53.75 C19.2539055,53.4531235 19.1835938,53.1171894 19.1835938,52.7421875 C19.1835938,52.4296859 19.2343745,52.1445325 19.3359375,51.8867188 C19.4375005,51.628905 19.5807282,51.4036468 19.765625,51.2109375 C19.9505218,51.0182282 20.1731758,50.8606777 20.4335938,50.7382812 C20.6940117,50.6158848 20.9856755,50.5312502 21.3085938,50.484375 L24.1289062,50.1015625 L24.1289062,49.59375 C24.1289062,49.2916652 24.0820317,49.0377614 23.9882812,48.8320312 C23.8945308,48.6263011 23.76823,48.4635423 23.609375,48.34375 C23.45052,48.2239577 23.2630219,48.1380211 23.046875,48.0859375 C22.8307281,48.0338539 22.5976575,48.0078125 22.3476562,48.0078125 C21.8997373,48.0078125 21.4817728,48.0703119 21.09375,48.1953125 C20.7057272,48.3203131 20.3554703,48.466145 20.0429688,48.6328125 L19.5507812,47.59375 C20.0091169,47.333332 20.4895808,47.1458339 20.9921875,47.03125 C21.4947942,46.9166661 21.990883,46.859375 22.4804688,46.859375 C23.454432,46.859375 24.1914037,47.0794249 24.6914062,47.5195312 C25.1914088,47.9596376 25.4414062,48.6015583 25.4414062,49.4453125 L25.4414062,53.125 C25.4414062,53.3906263 25.4934891,53.6132804 25.5976562,53.7929688 C25.7018234,53.9726571 25.8684884,54.1145828 26.0976562,54.21875 L25.3554688,55.15625 C25.1054675,55.0937497 24.8906259,54.9830737 24.7109375,54.8242188 C24.5312491,54.6653638 24.4049483,54.4739595 24.3320312,54.25 L24.3164062,54.203125 Z M21.9804688,51.4453125 C21.7617177,51.4765627 21.5625009,51.520833 21.3828125,51.578125 C21.2031241,51.635417 21.0507819,51.7122391 20.9257812,51.8085938 C20.8007806,51.9049484 20.7031254,52.0234368 20.6328125,52.1640625 C20.5624996,52.3046882 20.5273438,52.4765615 20.5273438,52.6796875 C20.5273438,52.9140637 20.5716141,53.1223949 20.6601562,53.3046875 C20.7486984,53.4869801 20.8684888,53.6406244 21.0195312,53.765625 C21.1705737,53.8906256 21.3463532,53.9856768 21.546875,54.0507812 C21.7473968,54.1158857 21.9570302,54.1484375 22.1757812,54.1484375 C22.4205741,54.1484375 22.6601551,54.1145837 22.8945312,54.046875 C23.1289074,53.9791663 23.3372387,53.8815111 23.5195312,53.7539062 C23.7018238,53.6263014 23.8489578,53.4713551 23.9609375,53.2890625 C24.0729172,53.1067699 24.1289062,52.8984387 24.1289062,52.6640625 L24.1289062,51.125 L21.9804688,51.4453125 Z M31.9023437,48.1875 L31.6914062,48.1875 C31.3528629,48.1875 31.0299495,48.2265621 30.7226562,48.3046875 C30.415363,48.3828129 30.1445324,48.5234365 29.9101562,48.7265625 C29.6757801,48.9296885 29.488282,49.2070295 29.3476562,49.5585938 C29.2070305,49.910158 29.1367188,50.3593723 29.1367188,50.90625 L29.1367188,55 L27.8242188,55 L27.8242188,47.015625 L29.1367188,47.015625 L29.1367188,48.28125 C29.2356776,48.0468738 29.3684887,47.8411467 29.5351562,47.6640625 C29.7018238,47.4869783 29.8906239,47.3398443 30.1015625,47.2226562 C30.3125011,47.1054682 30.5390613,47.0182295 30.78125,46.9609375 C31.0234387,46.9036455 31.26953,46.875 31.5195312,46.875 L31.9023437,46.875 L31.9023437,48.1875 Z M34.7539062,55 L33.4414062,55 L33.4414062,47.015625 L34.7539062,47.015625 L34.7539062,55 Z M33.1992188,44.7109375 C33.1992188,44.5859369 33.2239581,44.4687505 33.2734375,44.359375 C33.3229169,44.2499995 33.3880204,44.1536463 33.46875,44.0703125 C33.5494796,43.9869787 33.6458328,43.9205732 33.7578125,43.8710938 C33.8697922,43.8216143 33.9882806,43.796875 34.1132812,43.796875 C34.2382819,43.796875 34.3554682,43.8216143 34.4648438,43.8710938 C34.5742193,43.9205732 34.6692704,43.9869787 34.75,44.0703125 C34.8307296,44.1536463 34.8958331,44.2499995 34.9453125,44.359375 C34.9947919,44.4687505 35.0195312,44.5859369 35.0195312,44.7109375 C35.0195312,44.8359381 34.9947919,44.9544265 34.9453125,45.0664062 C34.8958331,45.178386 34.8307296,45.2747392 34.75,45.3554688 C34.6692704,45.4361983 34.5742193,45.5013018 34.4648438,45.5507812 C34.3554682,45.6002607 34.2382819,45.625 34.1132812,45.625 C33.9882806,45.625 33.8697922,45.6002607 33.7578125,45.5507812 C33.6458328,45.5013018 33.5494796,45.4361983 33.46875,45.3554688 C33.3880204,45.2747392 33.3229169,45.178386 33.2734375,45.0664062 C33.2239581,44.9544265 33.1992188,44.8359381 33.1992188,44.7109375 Z M37.1523438,47.015625 L38.4648438,47.015625 L38.4648438,47.9296875 C38.7356784,47.559894 39.0703105,47.2890634 39.46875,47.1171875 C39.8671895,46.9453116 40.3111955,46.859375 40.8007812,46.859375 C41.2434918,46.859375 41.6315088,46.9322909 41.9648438,47.078125 C42.2981787,47.2239591 42.5768218,47.4218738 42.8007812,47.671875 C43.0247407,47.9218762 43.1927078,48.2109359 43.3046875,48.5390625 C43.4166672,48.8671891 43.4726562,49.2135398 43.4726562,49.578125 L43.4726562,55 L42.1601562,55 L42.1601562,49.9921875 C42.1601562,49.6432274 42.1171879,49.3450533 42.03125,49.0976562 C41.9453121,48.8502592 41.8281257,48.6497404 41.6796875,48.4960938 C41.5312493,48.3424471 41.3567718,48.2304691 41.15625,48.1601562 C40.9557282,48.0898434 40.7408866,48.0546875 40.5117188,48.0546875 C40.2617175,48.0546875 40.0156262,48.10026 39.7734375,48.1914062 C39.5312488,48.2825525 39.312501,48.4192699 39.1171875,48.6015625 C38.921874,48.7838551 38.7643235,49.0130195 38.6445312,49.2890625 C38.524739,49.5651055 38.4648438,49.8906231 38.4648438,50.265625 L38.4648438,55 L37.1523438,55 L37.1523438,47.015625 Z M45.3554688,50.5703125 C45.3554688,50.0442682 45.4309888,49.5546898 45.5820313,49.1015625 C45.7330737,48.6484352 45.9492173,48.2565121 46.2304688,47.9257812 C46.5117202,47.5950504 46.8515605,47.3346364 47.25,47.1445312 C47.6484395,46.9544261 48.0950496,46.859375 48.5898438,46.859375 C49.0273459,46.859375 49.4440084,46.9440096 49.8398438,47.1132812 C50.2356791,47.2825529 50.5716132,47.5546856 50.8476563,47.9296875 L50.8476563,47.015625 L52.1601563,47.015625 L52.1601563,55 C52.1601563,55.4947941 52.0598968,55.9101546 51.859375,56.2460938 C51.6588532,56.5820329 51.397137,56.8515615 51.0742188,57.0546875 C50.7513005,57.2578135 50.3854187,57.4036454 49.9765625,57.4921875 C49.5677063,57.5807296 49.1523459,57.625 48.7304688,57.625 C48.4960926,57.625 48.2526054,57.6119793 48,57.5859375 C47.7473946,57.5598957 47.4934909,57.5208336 47.2382813,57.46875 C46.9830716,57.4166664 46.7317721,57.3502608 46.484375,57.2695312 C46.2369779,57.1888017 46.0013032,57.0937505 45.7773438,56.984375 L46.2539063,55.8828125 C46.410157,55.9557295 46.5742179,56.0273434 46.7460938,56.0976562 C46.9179696,56.1679691 47.1041657,56.2317705 47.3046875,56.2890625 C47.5052093,56.3463545 47.7200509,56.393229 47.9492188,56.4296875 C48.1783866,56.466146 48.4283841,56.484375 48.6992188,56.484375 C49.0325538,56.484375 49.333332,56.4505212 49.6015625,56.3828125 C49.869793,56.3151038 50.0950512,56.2096361 50.2773438,56.0664062 C50.4596363,55.9231764 50.6002599,55.7408865 50.6992188,55.5195312 C50.7981776,55.298176 50.8476563,55.0338557 50.8476563,54.7265625 L50.8476563,53.2109375 C50.5716132,53.5859394 50.2356791,53.8580721 49.8398438,54.0273438 C49.4440084,54.1966154 49.0273459,54.28125 48.5898438,54.28125 C48.0950496,54.28125 47.6484395,54.1861989 47.25,53.9960938 C46.8515605,53.8059886 46.5117202,53.5442725 46.2304688,53.2109375 C45.9492173,52.8776025 45.7330737,52.4856793 45.5820313,52.0351562 C45.4309888,51.5846332 45.3554688,51.0963568 45.3554688,50.5703125 Z M50.8789063,50.5390625 C50.8789063,50.1796857 50.8398441,49.8476578 50.7617188,49.5429688 C50.6835934,49.2382797 50.5611988,48.9726574 50.3945313,48.7460938 C50.2278638,48.5195301 50.0156263,48.3424486 49.7578125,48.2148438 C49.4999987,48.0872389 49.191408,48.0234375 48.8320313,48.0234375 C48.4674461,48.0234375 48.1523451,48.088541 47.8867188,48.21875 C47.6210924,48.348959 47.4010425,48.5273426 47.2265625,48.7539062 C47.0520825,48.9804699 46.9231775,49.2473943 46.8398438,49.5546875 C46.75651,49.8619807 46.7148438,50.1901024 46.7148438,50.5390625 L46.7148438,50.6015625 C46.7148438,50.9505226 46.75651,51.2773422 46.8398438,51.5820312 C46.9231775,51.8867203 47.0520825,52.1523426 47.2265625,52.3789062 C47.4010425,52.6054699 47.6210924,52.7838535 47.8867188,52.9140625 C48.1523451,53.0442715 48.4674461,53.109375 48.8320313,53.109375 C49.191408,53.109375 49.4999987,53.0455736 49.7578125,52.9179688 C50.0156263,52.7903639 50.2278638,52.6145845 50.3945313,52.390625 C50.5611988,52.1666655 50.6835934,51.9010432 50.7617188,51.59375 C50.8398441,51.2864568 50.8789063,50.9557309 50.8789063,50.6015625 L50.8789063,50.5390625 Z" id="Hearing" fill="#231F1F"></path>
                </g>
                <polygon id="Shape" fill="#FFFFFF" points="21.94 18.36 18.52 14.94 16 17.46 21.94 23.5799999 33.9999999 11.52 31.4799999 9"></polygon>
                <polygon id="Shape" fill="#FFFFFF" points="199.94 18.36 196.52 14.94 194 17.46 199.94 23.5799999 212 11.52 209.48 9"></polygon>
            </g>
        </g>
    </g>
</svg>